<?xml version="1.0" encoding="UTF-8"?>
<svg xmlns="http://www.w3.org/2000/svg" xmlns:xlink="http://www.w3.org/1999/xlink" width="400pt" height="400pt" viewBox="0 0 400 400" version="1.1">
<g id="surface1">
<path style=" stroke:none;fill-rule:nonzero;fill:#ffd700;fill-opacity:1;" d="M 363.933594 0 L 363.960938 0 L 363.992188 0.0078125 L 364.023438 0.0078125 L 364.050781 0.015625 L 364.089844 0.015625 L 364.152344 0.03125 L 364.179688 0.0390625 L 364.210938 0.0390625 L 364.242188 0.046875 L 364.269531 0.0507812 L 364.332031 0.0664062 L 364.355469 0.0742188 L 364.382812 0.0820312 L 364.414062 0.0976562 L 364.445312 0.105469 L 364.472656 0.113281 L 364.566406 0.136719 L 364.585938 0.144531 L 364.617188 0.15625 L 364.679688 0.171875 L 364.707031 0.179688 L 364.769531 0.195312 L 364.796875 0.203125 L 364.890625 0.226562 L 364.917969 0.226562 L 364.980469 0.242188 L 365.007812 0.242188 L 365.039062 0.25 L 365.070312 0.25 L 366.539062 0.164062 L 367.992188 0.136719 L 369.429688 0.171875 L 370.855469 0.261719 L 372.269531 0.421875 L 373.664062 0.632812 L 375.035156 0.894531 L 376.390625 1.21875 L 377.734375 1.589844 L 379.042969 2.019531 L 380.332031 2.5 L 381.597656 3.027344 L 382.832031 3.601562 L 384.039062 4.226562 L 385.21875 4.894531 L 386.371094 5.621094 L 387.496094 6.378906 L 388.578125 7.179688 L 389.628906 8.023438 L 390.644531 8.910156 L 391.625 9.839844 L 392.566406 10.800781 L 393.46875 11.804688 L 394.335938 12.835938 L 395.148438 13.914062 L 395.925781 15.011719 L 396.664062 16.152344 L 397.347656 17.316406 L 397.980469 18.515625 L 398.578125 19.742188 L 399.109375 21 L 399.601562 22.28125 L 400.039062 23.585938 L 400.421875 24.917969 L 400.746094 26.265625 L 401.015625 27.644531 L 401.226562 29.039062 L 401.378906 30.457031 L 401.476562 31.886719 L 401.507812 33.332031 L 401.507812 333.332031 L 401.492188 334.402344 L 401.4375 335.457031 L 401.355469 336.511719 L 401.234375 337.558594 L 401.09375 338.589844 L 400.910156 339.625 L 400.691406 340.640625 L 400.453125 341.648438 L 400.179688 342.644531 L 399.871094 343.632812 L 399.539062 344.609375 L 399.171875 345.566406 L 398.78125 346.515625 L 398.359375 347.449219 L 397.914062 348.375 L 397.429688 349.28125 L 396.933594 350.167969 L 396.398438 351.042969 L 395.84375 351.902344 L 395.261719 352.746094 L 394.652344 353.566406 L 394.019531 354.371094 L 393.363281 355.15625 L 392.679688 355.917969 L 391.96875 356.664062 L 391.246094 357.386719 L 390.492188 358.085938 L 389.71875 358.773438 L 388.917969 359.425781 L 388.105469 360.058594 L 387.269531 360.671875 L 386.402344 361.25 L 385.527344 361.808594 L 384.625 362.34375 L 383.707031 362.847656 L 382.773438 363.328125 L 381.816406 363.78125 L 380.84375 364.203125 L 379.847656 364.601562 L 378.839844 364.964844 L 278.328125 398.351562 L 278.050781 398.433594 L 277.777344 398.515625 L 277.5 398.589844 L 277.226562 398.667969 L 276.957031 398.742188 L 276.683594 398.816406 L 276.421875 398.886719 L 276.152344 398.953125 L 275.878906 399.019531 L 275.617188 399.089844 L 275.34375 399.148438 L 275.082031 399.210938 L 274.808594 399.261719 L 274.546875 399.316406 L 274.28125 399.367188 L 274.019531 399.421875 L 273.753906 399.464844 L 273.492188 399.519531 L 273.226562 399.554688 L 272.964844 399.601562 L 272.699219 399.636719 L 272.4375 399.675781 L 272.171875 399.714844 L 271.910156 399.742188 L 271.644531 399.773438 L 271.382812 399.804688 L 271.117188 399.835938 L 270.855469 399.855469 L 270.589844 399.878906 L 270.328125 399.902344 L 270.0625 399.917969 L 269.800781 399.941406 L 269.535156 399.953125 L 269.273438 399.960938 L 269 399.976562 L 268.738281 399.984375 L 268.472656 399.992188 L 268.203125 399.992188 L 267.941406 400 L 267.667969 400 L 266.289062 399.96875 L 264.925781 399.886719 L 263.578125 399.75 L 262.246094 399.5625 L 260.933594 399.320312 L 259.636719 399.027344 L 258.359375 398.6875 L 257.105469 398.296875 L 255.871094 397.859375 L 254.660156 397.378906 L 253.46875 396.851562 L 252.308594 396.269531 L 251.164062 395.660156 L 250.054688 395 L 248.972656 394.296875 L 247.925781 393.558594 L 246.898438 392.785156 L 245.90625 391.96875 L 244.949219 391.117188 L 244.023438 390.230469 L 243.132812 389.304688 L 242.273438 388.347656 L 241.453125 387.359375 L 240.679688 386.34375 L 239.933594 385.289062 L 239.230469 384.210938 L 238.570312 383.105469 L 237.949219 381.972656 L 237.378906 380.8125 L 236.84375 379.632812 L 236.363281 378.425781 L 235.925781 377.191406 L 235.53125 375.941406 L 235.1875 374.667969 L 234.894531 373.378906 L 234.652344 372.066406 L 234.464844 370.734375 L 234.328125 369.394531 L 234.246094 368.039062 L 234.214844 366.667969 L 234.214844 350.003906 L 184.03125 350.003906 L 181.957031 349.957031 L 179.917969 349.832031 L 177.898438 349.628906 L 175.894531 349.339844 L 173.929688 348.980469 L 171.984375 348.542969 L 170.0625 348.03125 L 168.179688 347.449219 L 166.328125 346.789062 L 164.511719 346.0625 L 162.726562 345.273438 L 160.988281 344.40625 L 159.277344 343.488281 L 157.613281 342.5 L 155.984375 341.445312 L 154.402344 340.339844 L 152.875 339.171875 L 151.382812 337.949219 L 149.945312 336.671875 L 148.558594 335.335938 L 147.214844 333.949219 L 145.9375 332.519531 L 144.707031 331.035156 L 143.53125 329.507812 L 142.425781 327.933594 L 141.371094 326.320312 L 140.375 324.65625 L 139.449219 322.960938 L 138.582031 321.21875 L 137.785156 319.441406 L 137.0625 317.628906 L 136.398438 315.789062 L 135.8125 313.90625 L 135.300781 312 L 134.863281 310.0625 L 134.492188 308.097656 L 134.207031 306.109375 L 134.003906 304.097656 L 133.882812 302.054688 L 133.839844 300 L 133.839844 266.667969 L 133.851562 265.980469 L 133.890625 265.296875 L 133.957031 264.625 L 134.054688 263.960938 L 134.175781 263.308594 L 134.328125 262.660156 L 134.492188 262.027344 L 134.6875 261.402344 L 134.90625 260.785156 L 135.15625 260.179688 L 135.421875 259.585938 L 135.707031 259.011719 L 136.015625 258.441406 L 136.347656 257.890625 L 136.691406 257.347656 L 137.070312 256.828125 L 137.453125 256.316406 L 137.867188 255.820312 L 138.289062 255.34375 L 138.742188 254.886719 L 139.203125 254.441406 L 139.683594 254.011719 L 140.171875 253.605469 L 140.683594 253.21875 L 141.210938 252.851562 L 141.753906 252.496094 L 142.3125 252.171875 L 142.878906 251.863281 L 143.464844 251.578125 L 144.050781 251.308594 L 144.664062 251.066406 L 145.28125 250.847656 L 145.90625 250.660156 L 146.546875 250.484375 L 147.195312 250.335938 L 147.847656 250.214844 L 148.519531 250.125 L 149.191406 250.054688 L 149.875 250.011719 L 150.570312 250.003906 L 151.253906 250.011719 L 151.941406 250.054688 L 152.609375 250.125 L 153.28125 250.214844 L 153.9375 250.335938 L 154.582031 250.484375 L 155.222656 250.660156 L 155.847656 250.847656 L 156.46875 251.066406 L 157.078125 251.308594 L 157.664062 251.578125 L 158.253906 251.863281 L 158.816406 252.171875 L 159.375 252.496094 L 159.917969 252.851562 L 160.445312 253.21875 L 160.957031 253.605469 L 161.445312 254.011719 L 161.929688 254.441406 L 162.386719 254.886719 L 162.839844 255.34375 L 163.261719 255.820312 L 163.675781 256.316406 L 164.058594 256.828125 L 164.4375 257.347656 L 164.785156 257.890625 L 165.113281 258.441406 L 165.421875 259.011719 L 165.710938 259.585938 L 165.972656 260.179688 L 166.222656 260.785156 L 166.441406 261.402344 L 166.636719 262.027344 L 166.800781 262.660156 L 166.953125 263.308594 L 167.074219 263.960938 L 167.171875 264.625 L 167.238281 265.296875 L 167.277344 265.980469 L 167.292969 266.667969 L 167.292969 300 L 167.308594 300.683594 L 167.34375 301.363281 L 167.414062 302.035156 L 167.511719 302.695312 L 167.632812 303.351562 L 167.78125 304 L 167.949219 304.632812 L 168.144531 305.257812 L 168.367188 305.875 L 168.609375 306.476562 L 168.875 307.074219 L 169.160156 307.644531 L 169.476562 308.21875 L 169.800781 308.769531 L 170.15625 309.3125 L 170.523438 309.832031 L 170.914062 310.34375 L 171.328125 310.839844 L 171.75 311.316406 L 172.203125 311.773438 L 172.664062 312.21875 L 173.144531 312.648438 L 173.640625 313.054688 L 174.15625 313.445312 L 174.683594 313.816406 L 175.214844 314.160156 L 175.773438 314.492188 L 176.347656 314.800781 L 176.925781 315.089844 L 177.523438 315.351562 L 178.125 315.59375 L 178.742188 315.8125 L 179.375 316.007812 L 180.015625 316.179688 L 180.664062 316.324219 L 181.316406 316.445312 L 181.980469 316.542969 L 182.660156 316.609375 L 183.335938 316.648438 L 184.03125 316.664062 L 234.214844 316.664062 L 234.214844 66.667969 L 234.230469 65.597656 L 234.28125 64.542969 L 234.367188 63.488281 L 234.484375 62.441406 L 234.628906 61.410156 L 234.808594 60.375 L 235.027344 59.359375 L 235.269531 58.351562 L 235.539062 57.355469 L 235.847656 56.367188 L 236.179688 55.390625 L 236.550781 54.433594 L 236.941406 53.484375 L 237.355469 52.550781 L 237.808594 51.625 L 238.28125 50.71875 L 238.789062 49.832031 L 239.320312 48.957031 L 239.878906 48.097656 L 240.460938 47.253906 L 241.070312 46.433594 L 241.703125 45.628906 L 242.359375 44.84375 L 243.035156 44.082031 L 243.742188 43.335938 L 244.472656 42.613281 L 245.21875 41.914062 L 245.996094 41.226562 L 246.792969 40.574219 L 247.609375 39.941406 L 248.445312 39.328125 L 249.304688 38.75 L 250.183594 38.191406 L 251.082031 37.65625 L 252 37.152344 L 252.933594 36.671875 L 253.890625 36.21875 L 254.863281 35.796875 L 255.855469 35.398438 L 256.859375 35.035156 L 261.964844 33.332031 L 184.03125 33.332031 L 183.335938 33.347656 L 182.660156 33.394531 L 181.980469 33.460938 L 181.316406 33.550781 L 180.664062 33.671875 L 180.015625 33.824219 L 179.375 33.988281 L 178.742188 34.183594 L 178.125 34.402344 L 177.523438 34.652344 L 176.925781 34.914062 L 176.347656 35.203125 L 175.773438 35.511719 L 175.214844 35.835938 L 174.683594 36.1875 L 174.15625 36.558594 L 173.640625 36.949219 L 173.144531 37.355469 L 172.664062 37.777344 L 172.203125 38.222656 L 171.75 38.683594 L 171.328125 39.164062 L 170.914062 39.660156 L 170.523438 40.164062 L 170.15625 40.691406 L 169.800781 41.226562 L 169.476562 41.785156 L 169.160156 42.351562 L 168.875 42.929688 L 168.609375 43.527344 L 168.367188 44.128906 L 168.144531 44.738281 L 167.949219 45.363281 L 167.78125 46.003906 L 167.632812 46.644531 L 167.511719 47.300781 L 167.414062 47.960938 L 167.34375 48.632812 L 167.308594 49.316406 L 167.292969 50.003906 L 167.292969 66.667969 L 167.277344 67.351562 L 167.238281 68.03125 L 167.171875 68.699219 L 167.074219 69.371094 L 166.953125 70.027344 L 166.800781 70.667969 L 166.636719 71.308594 L 166.441406 71.933594 L 166.222656 72.550781 L 165.972656 73.152344 L 165.710938 73.746094 L 165.421875 74.320312 L 165.113281 74.894531 L 164.785156 75.441406 L 164.4375 75.984375 L 164.058594 76.503906 L 163.675781 77.015625 L 163.261719 77.515625 L 162.839844 77.988281 L 162.386719 78.449219 L 161.929688 78.894531 L 161.445312 79.320312 L 160.957031 79.730469 L 160.445312 80.121094 L 159.917969 80.488281 L 159.375 80.835938 L 158.816406 81.167969 L 158.253906 81.476562 L 157.664062 81.761719 L 157.078125 82.027344 L 156.46875 82.265625 L 155.847656 82.484375 L 155.222656 82.683594 L 154.582031 82.847656 L 153.9375 83 L 153.28125 83.117188 L 152.609375 83.210938 L 151.941406 83.285156 L 151.253906 83.320312 L 150.570312 83.335938 L 149.875 83.320312 L 149.191406 83.285156 L 148.519531 83.210938 L 147.847656 83.117188 L 147.195312 83 L 146.546875 82.847656 L 145.90625 82.683594 L 145.28125 82.484375 L 144.664062 82.265625 L 144.050781 82.027344 L 143.464844 81.761719 L 142.878906 81.476562 L 142.3125 81.167969 L 141.753906 80.835938 L 141.210938 80.488281 L 140.683594 80.121094 L 140.171875 79.730469 L 139.683594 79.320312 L 139.203125 78.894531 L 138.742188 78.449219 L 138.289062 77.988281 L 137.867188 77.515625 L 137.453125 77.015625 L 137.070312 76.503906 L 136.691406 75.984375 L 136.347656 75.441406 L 136.015625 74.894531 L 135.707031 74.320312 L 135.421875 73.746094 L 135.15625 73.152344 L 134.90625 72.550781 L 134.6875 71.933594 L 134.492188 71.308594 L 134.328125 70.667969 L 134.175781 70.027344 L 134.054688 69.371094 L 133.957031 68.699219 L 133.890625 68.03125 L 133.851562 67.351562 L 133.839844 66.667969 L 133.839844 50.003906 L 133.882812 47.941406 L 134.003906 45.90625 L 134.207031 43.894531 L 134.492188 41.898438 L 134.863281 39.941406 L 135.300781 37.996094 L 135.8125 36.089844 L 136.398438 34.214844 L 137.0625 32.367188 L 137.785156 30.5625 L 138.582031 28.785156 L 139.449219 27.042969 L 140.375 25.339844 L 141.371094 23.683594 L 142.425781 22.0625 L 143.53125 20.488281 L 144.707031 18.960938 L 145.9375 17.476562 L 147.214844 16.046875 L 148.558594 14.660156 L 149.945312 13.332031 L 151.382812 12.050781 L 152.875 10.824219 L 154.402344 9.65625 L 155.984375 8.550781 L 157.613281 7.503906 L 159.277344 6.515625 L 160.988281 5.589844 L 162.726562 4.730469 L 164.511719 3.941406 L 166.328125 3.210938 L 168.179688 2.554688 L 170.0625 1.964844 L 171.984375 1.453125 L 173.929688 1.015625 L 175.894531 0.65625 L 177.898438 0.367188 L 179.917969 0.164062 L 181.957031 0.046875 L 184.03125 0 Z M 268.65625 179.617188 L 267.796875 179.742188 L 266.953125 179.925781 L 266.117188 180.152344 L 265.289062 180.421875 L 264.472656 180.738281 L 263.675781 181.101562 L 262.886719 181.515625 L 262.117188 181.964844 L 261.363281 182.457031 L 260.617188 182.992188 L 259.894531 183.570312 L 259.1875 184.179688 L 258.5 184.835938 L 257.832031 185.523438 L 257.175781 186.253906 L 256.550781 187.011719 L 255.933594 187.8125 L 255.34375 188.640625 L 254.78125 189.5 L 254.238281 190.386719 L 253.71875 191.316406 L 253.21875 192.261719 L 252.746094 193.242188 L 252.300781 194.253906 L 251.878906 195.285156 L 251.488281 196.347656 L 251.117188 197.429688 L 250.78125 198.53125 L 250.472656 199.660156 L 250.191406 200.8125 L 249.945312 201.980469 L 249.726562 203.171875 L 249.535156 204.375 L 249.386719 205.597656 L 249.265625 206.839844 L 249.175781 208.097656 L 249.121094 209.363281 L 249.105469 210.644531 L 249.121094 211.933594 L 249.175781 213.199219 L 249.265625 214.457031 L 249.386719 215.691406 L 249.535156 216.917969 L 249.726562 218.125 L 249.945312 219.316406 L 250.191406 220.480469 L 250.472656 221.632812 L 250.78125 222.757812 L 251.117188 223.863281 L 251.488281 224.949219 L 251.878906 226.011719 L 252.300781 227.042969 L 252.746094 228.046875 L 253.21875 229.03125 L 253.71875 229.980469 L 254.238281 230.898438 L 254.78125 231.796875 L 255.34375 232.65625 L 255.933594 233.484375 L 256.550781 234.28125 L 257.175781 235.042969 L 257.832031 235.765625 L 258.5 236.460938 L 259.1875 237.113281 L 259.894531 237.726562 L 260.617188 238.304688 L 261.363281 238.839844 L 262.117188 239.328125 L 262.886719 239.78125 L 263.675781 240.1875 L 264.472656 240.558594 L 265.289062 240.875 L 266.117188 241.144531 L 266.953125 241.371094 L 267.796875 241.550781 L 268.65625 241.679688 L 269.527344 241.753906 L 270.402344 241.777344 L 271.285156 241.753906 L 272.152344 241.679688 L 273.007812 241.550781 L 273.859375 241.371094 L 274.695312 241.144531 L 275.519531 240.875 L 276.332031 240.558594 L 277.128906 240.1875 L 277.921875 239.78125 L 278.6875 239.328125 L 279.449219 238.839844 L 280.1875 238.304688 L 280.910156 237.726562 L 281.621094 237.113281 L 282.3125 236.460938 L 282.984375 235.765625 L 283.632812 235.042969 L 284.261719 234.28125 L 284.875 233.484375 L 285.460938 232.65625 L 286.027344 231.796875 L 286.578125 230.898438 L 287.097656 229.980469 L 287.59375 229.03125 L 288.058594 228.046875 L 288.511719 227.042969 L 288.925781 226.011719 L 289.324219 224.949219 L 289.6875 223.863281 L 290.027344 222.757812 L 290.335938 221.632812 L 290.613281 220.480469 L 290.863281 219.316406 L 291.082031 218.125 L 291.269531 216.917969 L 291.421875 215.691406 L 291.546875 214.457031 L 291.632812 213.199219 L 291.683594 211.933594 L 291.707031 210.644531 L 291.683594 209.363281 L 291.632812 208.097656 L 291.546875 206.839844 L 291.421875 205.597656 L 291.269531 204.375 L 291.082031 203.171875 L 290.863281 201.980469 L 290.613281 200.8125 L 290.335938 199.660156 L 290.027344 198.53125 L 289.6875 197.429688 L 289.324219 196.347656 L 288.925781 195.285156 L 288.511719 194.253906 L 288.058594 193.242188 L 287.59375 192.261719 L 287.097656 191.316406 L 286.578125 190.386719 L 286.027344 189.5 L 285.460938 188.640625 L 284.875 187.8125 L 284.261719 187.011719 L 283.632812 186.253906 L 282.984375 185.523438 L 282.3125 184.835938 L 281.621094 184.179688 L 280.910156 183.570312 L 280.1875 182.992188 L 279.449219 182.457031 L 278.6875 181.964844 L 277.921875 181.515625 L 277.128906 181.101562 L 276.332031 180.738281 L 275.519531 180.421875 L 274.695312 180.152344 L 273.859375 179.925781 L 273.007812 179.742188 L 272.152344 179.617188 L 271.285156 179.539062 L 270.402344 179.519531 L 269.527344 179.539062 Z M 268.65625 179.617188 "/>
<path style=" stroke:none;fill-rule:nonzero;fill:#ffd700;fill-opacity:1;" d="M 101.226562 83.667969 L 101.710938 83.699219 L 102.199219 83.742188 L 102.683594 83.804688 L 103.164062 83.878906 L 103.636719 83.96875 L 104.113281 84.066406 L 104.585938 84.1875 L 105.054688 84.316406 L 105.523438 84.460938 L 105.980469 84.609375 L 106.441406 84.785156 L 106.894531 84.964844 L 107.335938 85.167969 L 107.78125 85.378906 L 108.21875 85.597656 L 108.648438 85.839844 L 109.070312 86.085938 L 109.484375 86.351562 L 109.898438 86.621094 L 110.304688 86.914062 L 110.695312 87.214844 L 111.089844 87.53125 L 111.464844 87.855469 L 111.84375 88.195312 L 112.203125 88.550781 L 179.117188 155.464844 L 179.601562 155.960938 L 180.050781 156.472656 L 180.480469 157 L 180.890625 157.542969 L 181.265625 158.09375 L 181.628906 158.660156 L 181.957031 159.230469 L 182.261719 159.8125 L 182.546875 160.40625 L 182.800781 161 L 183.035156 161.613281 L 183.246094 162.222656 L 183.425781 162.847656 L 183.585938 163.472656 L 183.722656 164.105469 L 183.835938 164.738281 L 183.917969 165.371094 L 183.976562 166.011719 L 184.015625 166.652344 L 184.03125 167.292969 L 184.015625 167.941406 L 183.976562 168.578125 L 183.917969 169.21875 L 183.835938 169.851562 L 183.722656 170.484375 L 183.585938 171.117188 L 183.425781 171.742188 L 183.246094 172.363281 L 183.035156 172.980469 L 182.800781 173.589844 L 182.546875 174.183594 L 182.261719 174.78125 L 181.957031 175.359375 L 181.628906 175.933594 L 181.265625 176.496094 L 180.890625 177.046875 L 180.480469 177.582031 L 180.050781 178.109375 L 179.601562 178.621094 L 179.117188 179.117188 L 112.203125 246.042969 L 111.84375 246.394531 L 111.464844 246.734375 L 111.089844 247.058594 L 110.695312 247.375 L 110.304688 247.675781 L 109.898438 247.960938 L 109.484375 248.242188 L 109.070312 248.503906 L 108.648438 248.753906 L 108.21875 248.988281 L 107.78125 249.210938 L 107.335938 249.421875 L 106.894531 249.621094 L 106.441406 249.808594 L 105.980469 249.972656 L 105.523438 250.132812 L 105.054688 250.273438 L 104.585938 250.402344 L 104.113281 250.515625 L 103.636719 250.621094 L 103.164062 250.710938 L 102.683594 250.789062 L 102.199219 250.847656 L 101.710938 250.894531 L 101.226562 250.921875 L 100.738281 250.9375 L 100.25 250.945312 L 99.765625 250.929688 L 99.277344 250.90625 L 98.789062 250.871094 L 98.296875 250.816406 L 97.808594 250.75 L 97.324219 250.667969 L 96.835938 250.570312 L 96.355469 250.457031 L 95.871094 250.328125 L 95.390625 250.183594 L 94.914062 250.027344 L 94.441406 249.859375 L 93.964844 249.671875 L 93.507812 249.46875 L 93.046875 249.257812 L 92.601562 249.03125 L 92.164062 248.789062 L 91.738281 248.542969 L 91.316406 248.277344 L 90.898438 248 L 90.5 247.714844 L 90.109375 247.421875 L 89.726562 247.109375 L 89.347656 246.792969 L 88.988281 246.464844 L 88.632812 246.125 L 88.292969 245.777344 L 87.960938 245.421875 L 87.636719 245.054688 L 87.328125 244.679688 L 87.035156 244.292969 L 86.742188 243.902344 L 86.472656 243.503906 L 86.207031 243.097656 L 85.949219 242.683594 L 85.710938 242.261719 L 85.484375 241.824219 L 85.265625 241.386719 L 85.070312 240.949219 L 84.875 240.496094 L 84.699219 240.046875 L 84.535156 239.578125 L 84.382812 239.117188 L 84.25 238.644531 L 84.121094 238.167969 L 84.015625 237.6875 L 83.917969 237.199219 L 83.835938 236.714844 L 83.765625 236.21875 L 83.722656 235.722656 L 83.683594 235.222656 L 83.660156 234.71875 L 83.652344 234.214844 L 83.652344 184.03125 L 16.722656 184.03125 L 16.039062 184.015625 L 15.359375 183.96875 L 14.683594 183.902344 L 14.019531 183.804688 L 13.355469 183.683594 L 12.707031 183.539062 L 12.066406 183.367188 L 11.441406 183.171875 L 10.824219 182.953125 L 10.222656 182.710938 L 9.628906 182.449219 L 9.046875 182.15625 L 8.472656 181.84375 L 7.917969 181.523438 L 7.375 181.167969 L 6.855469 180.796875 L 6.34375 180.40625 L 5.84375 180 L 5.363281 179.570312 L 4.902344 179.125 L 4.460938 178.660156 L 4.03125 178.175781 L 3.625 177.6875 L 3.230469 177.175781 L 2.863281 176.648438 L 2.507812 176.105469 L 2.175781 175.546875 L 1.867188 174.984375 L 1.582031 174.394531 L 1.316406 173.800781 L 1.070312 173.199219 L 0.851562 172.578125 L 0.65625 171.949219 L 0.488281 171.316406 L 0.339844 170.667969 L 0.21875 170.003906 L 0.121094 169.339844 L 0.0507812 168.664062 L 0.015625 167.984375 L 0 167.292969 L 0.015625 166.605469 L 0.0507812 165.921875 L 0.121094 165.25 L 0.21875 164.578125 L 0.339844 163.925781 L 0.488281 163.277344 L 0.65625 162.636719 L 0.851562 162.011719 L 1.070312 161.394531 L 1.316406 160.785156 L 1.582031 160.1875 L 1.867188 159.609375 L 2.175781 159.042969 L 2.507812 158.484375 L 2.863281 157.945312 L 3.230469 157.417969 L 3.625 156.902344 L 4.03125 156.40625 L 4.460938 155.933594 L 4.902344 155.464844 L 5.363281 155.019531 L 5.84375 154.589844 L 6.34375 154.183594 L 6.855469 153.792969 L 7.375 153.421875 L 7.917969 153.070312 L 8.472656 152.746094 L 9.046875 152.4375 L 9.628906 152.144531 L 10.222656 151.878906 L 10.824219 151.636719 L 11.441406 151.421875 L 12.066406 151.222656 L 12.707031 151.050781 L 13.355469 150.90625 L 14.019531 150.789062 L 14.683594 150.6875 L 15.359375 150.621094 L 16.039062 150.578125 L 16.722656 150.570312 L 83.652344 150.570312 L 83.652344 100.375 L 83.660156 99.871094 L 83.683594 99.367188 L 83.722656 98.871094 L 83.765625 98.371094 L 83.835938 97.875 L 83.917969 97.394531 L 84.015625 96.902344 L 84.121094 96.421875 L 84.25 95.949219 L 84.382812 95.472656 L 84.535156 95.011719 L 84.699219 94.546875 L 84.875 94.09375 L 85.070312 93.640625 L 85.265625 93.199219 L 85.484375 92.761719 L 85.710938 92.332031 L 85.949219 91.910156 L 86.207031 91.496094 L 86.472656 91.089844 L 86.742188 90.6875 L 87.035156 90.296875 L 87.328125 89.914062 L 87.636719 89.535156 L 87.960938 89.167969 L 88.292969 88.8125 L 88.632812 88.460938 L 88.988281 88.128906 L 89.347656 87.796875 L 89.726562 87.480469 L 90.109375 87.171875 L 90.5 86.878906 L 90.898438 86.589844 L 91.316406 86.3125 L 91.738281 86.050781 L 92.164062 85.800781 L 92.601562 85.558594 L 93.046875 85.332031 L 93.507812 85.121094 L 93.964844 84.917969 L 94.441406 84.730469 L 94.914062 84.558594 L 95.390625 84.40625 L 95.871094 84.261719 L 96.355469 84.136719 L 96.835938 84.023438 L 97.324219 83.925781 L 97.808594 83.84375 L 98.296875 83.773438 L 98.789062 83.722656 L 99.277344 83.683594 L 99.765625 83.652344 L 100.25 83.644531 L 100.738281 83.644531 Z M 101.226562 83.667969 "/>
</g>
</svg>
