<svg width="120" height="20" viewBox="0 0 120 20" fill="none" xmlns="http://www.w3.org/2000/svg">
<g id="bloomTech logo">
<path id="Vector" d="M29.2298 10.7778C28.1473 8.55555 26.5235 7.5 24.3584 7.5H23.763C22.7346 7.5 21.7603 7.83333 20.8402 8.44444C19.2705 9.66666 18.5127 11.3333 18.5127 13.3333V14L18.5669 15.0555C19.3246 18.2777 21.1649 19.8333 24.1419 19.8333C24.8997 19.8333 25.6575 19.7222 26.307 19.4444C28.5803 18.3889 29.7711 16.4444 29.7711 13.6666C29.717 12.7222 29.5546 11.7222 29.2298 10.7778ZM23.1676 17.0555C21.9227 16.5 21.3273 15.4444 21.3273 13.7222V13.6666C21.3273 13.2222 21.3815 12.7222 21.4897 12.1667C22.031 10.7778 22.8429 10.1111 24.0337 10.1111C24.2502 10.1111 24.6291 10.1667 24.9538 10.2778C26.1987 10.8333 26.8483 11.9444 26.8483 13.6111V13.8333C26.8483 14.3333 26.7941 14.7778 26.6318 15.2222C26.1446 16.6111 25.2786 17.2777 24.0878 17.2777C23.8713 17.2222 23.4383 17.1666 23.1676 17.0555Z" fill="#FFCC09"/>
<path id="Vector_2" d="M16.0742 19.4995V3.72177C16.0742 3.444 15.9118 3.33289 15.6953 3.33289H13.6384C13.3678 3.33289 13.3136 3.49955 13.3136 3.72177V19.4439C13.3136 19.6662 13.4219 19.8328 13.6384 19.8328H15.6953C15.8577 19.8328 16.0742 19.7217 16.0742 19.4995Z" fill="#FFCC09"/>
<path id="Vector_3" d="M2.38359 3.66699H0.380888C0.110253 3.66699 0.0019989 3.83366 0.0019989 4.05588V14.0558L0.0561262 15.2781C0.110253 16.2781 0.705651 17.2225 1.30105 18.0003C2.76248 19.7225 4.16978 19.8336 5.63121 19.8336C6.33487 19.8336 7.09265 19.6669 7.85042 19.3892C9.90725 18.2781 10.8815 16.4447 10.8815 13.8892V13.5558C10.8815 12.7225 10.7192 11.9447 10.4485 11.167C9.52836 8.77809 7.90455 7.55587 5.57709 7.55587C4.33216 7.55587 3.35788 7.8892 2.65423 8.50031C2.65423 7.00031 2.65423 4.11143 2.65423 4.11143C2.70835 3.7781 2.54597 3.66699 2.38359 3.66699ZM4.38629 17.0558C3.24962 16.5003 2.70835 15.4447 2.70835 13.8336V13.5003L2.81661 12.5003C3.1955 10.8892 4.0074 10.1114 5.30645 10.1114C5.63121 10.1114 6.0101 10.1114 6.38899 10.2781C7.57979 10.8336 8.17519 11.8892 8.17519 13.5558C8.17519 14.0558 8.12106 14.5558 8.0128 15.0558C7.63392 16.5003 6.87614 17.2225 5.73947 17.2225C5.46883 17.2225 4.76518 17.2225 4.38629 17.0558Z" fill="#FFCC09"/>
<path id="Vector_4" d="M57.2665 10.3886C57.5372 10.4442 58.6197 10.7775 58.6197 13.4997V19.4441C58.6197 19.6664 58.728 19.833 58.9445 19.833H60.9472C61.1637 19.833 61.3261 19.6664 61.3261 19.4441V12.722C61.3261 12.1109 61.2178 11.4442 61.0013 10.7775C60.1353 8.55532 58.6739 7.44421 56.5629 7.44421H56.3464C54.9932 7.44421 53.8565 7.99977 52.9905 8.99976C52.0703 7.99977 50.9337 7.44421 49.5263 7.44421H49.4181C48.4438 7.44421 47.5236 7.72199 46.7117 8.27754C45.3585 9.4442 44.709 10.8331 44.709 12.4997V19.3886C44.709 19.5553 44.8173 19.7775 45.0879 19.7775H47.0906C47.3613 19.7775 47.4154 19.6108 47.4154 19.3886V13.222C47.4154 12.6664 47.4695 12.222 47.5778 11.8331C47.9025 10.7775 48.4979 10.2775 49.5263 10.2775C49.797 10.2775 50.1217 10.3331 50.3924 10.4442C51.2043 10.8331 51.5832 11.6109 51.5832 12.8331V19.4441C51.5832 19.6664 51.7456 19.833 51.9079 19.833H54.0189C54.1813 19.833 54.3437 19.6664 54.3437 19.4441V12.6664L54.4519 11.9997C54.7226 10.8331 55.3721 10.2775 56.4546 10.2775C56.7794 10.2775 57.1042 10.3331 57.2665 10.3886Z" fill="#FFCC09"/>
<path id="Vector_5" d="M42.3817 10.7778C41.2991 8.55555 39.6753 7.5 37.5103 7.5H36.9149C35.8865 7.5 34.9122 7.83333 33.992 8.44444C32.4224 9.66666 31.6646 11.3333 31.6646 13.3333V14L31.7187 15.0555C32.4765 18.2777 34.3168 19.8333 37.2938 19.8333C38.0515 19.8333 38.8093 19.7222 39.4588 19.4444C41.7321 18.3889 42.9229 16.4444 42.9229 13.6666C42.9229 12.7222 42.7064 11.7222 42.3817 10.7778ZM36.3195 17.0555C35.0746 16.5 34.4792 15.4444 34.4792 13.7222V13.6666C34.4792 13.2222 34.5333 12.7222 34.6415 12.1667C35.1828 10.7778 35.9947 10.1111 37.1855 10.1111C37.402 10.1111 37.7809 10.1667 38.1057 10.2778C39.3506 10.8333 40.0001 11.9444 40.0001 13.6111V13.8333C40.0001 14.3333 39.946 14.7778 39.7836 15.2222C39.2964 16.6111 38.4304 17.2777 37.2396 17.2777C37.0231 17.2222 36.5901 17.1666 36.3195 17.0555Z" fill="#FFCC09"/>
<path id="Vector_6" d="M74.7507 3.50075C74.8589 3.50075 74.9131 3.5563 75.0213 3.61186C75.1296 3.66741 75.1837 3.77852 75.2378 3.88963C75.292 4.00074 75.3461 4.16741 75.3461 4.38963C75.3461 4.61185 75.292 4.77852 75.2378 4.88963C75.1837 5.00074 75.0755 5.11185 75.0213 5.16741C74.9131 5.22296 74.8589 5.27852 74.7507 5.27852C74.6424 5.27852 74.5883 5.33407 74.5883 5.33407H70.204V19.834H68.0931V5.33407H63.7088H63.6546C63.6005 5.33407 63.5464 5.33407 63.4923 5.27852C63.384 5.27852 63.3299 5.22296 63.2216 5.16741C63.1134 5.11185 63.0592 5.00074 63.0051 4.88963C62.951 4.77852 62.8969 4.61185 62.8969 4.38963C62.8969 4.16741 62.951 4.00074 63.0051 3.88963C63.0592 3.77852 63.1675 3.66741 63.2216 3.61186C63.3299 3.5563 63.384 3.50075 63.4923 3.50075C63.6005 3.50075 63.6546 3.44519 63.6546 3.44519H74.4801H74.5342C74.5883 3.50075 74.6424 3.50075 74.7507 3.50075Z" fill="#FFCC09"/>
<path id="Vector_7" d="M86.2243 13.7775C86.2243 13.9442 86.2243 14.1108 86.2243 14.2775C86.2243 14.4442 86.1702 14.6108 86.1702 14.7775H86.1161H77.1852C77.2934 15.2775 77.4558 15.7219 77.6723 16.1108C77.8888 16.4997 78.1594 16.8886 78.4842 17.1664C78.809 17.4442 79.1337 17.7219 79.5126 17.8886C79.8915 18.0553 80.2704 18.1664 80.7034 18.1664C81.2447 18.1664 81.6777 18.0553 82.1648 17.7775C82.5978 17.5553 83.0308 17.1664 83.3556 16.7775L84.8712 17.9442C84.3299 18.6108 83.7345 19.1108 83.0308 19.4441C82.3272 19.833 81.5694 19.9997 80.7575 19.9997C79.9997 19.9997 79.242 19.833 78.5924 19.4997C77.9429 19.1664 77.3475 18.7219 76.8063 18.1664C76.3191 17.6108 75.8861 16.9442 75.6155 16.1664C75.3448 15.3886 75.1825 14.6108 75.1825 13.722C75.1825 12.8886 75.3448 12.0553 75.6155 11.2775C75.8861 10.4998 76.3191 9.88864 76.8063 9.27754C77.2934 8.72198 77.8888 8.27754 78.5924 7.94421C79.242 7.61088 79.9997 7.44421 80.7575 7.44421C81.5153 7.44421 82.2189 7.61088 82.9226 7.94421C83.5721 8.27754 84.1675 8.72198 84.7088 9.27754C85.1959 9.83309 85.6289 10.4998 85.8996 11.2775C86.0619 12.1109 86.2243 12.8886 86.2243 13.7775ZM80.6493 9.38865C80.2162 9.38865 79.8374 9.49976 79.4585 9.66642C79.0796 9.83309 78.7548 10.0553 78.4301 10.3886C78.1053 10.6664 77.8347 11.0553 77.6182 11.4442C77.4017 11.8331 77.2393 12.2775 77.131 12.7775H84.1134C84.0051 12.2775 83.8427 11.8331 83.6262 11.4442C83.4097 11.0553 83.1391 10.6664 82.8685 10.3886C82.5437 10.1109 82.2189 9.83309 81.8401 9.66642C81.5153 9.49976 81.0823 9.38865 80.6493 9.38865Z" fill="#FFCC09"/>
<path id="Vector_8" d="M95.5874 17.5C95.6415 17.4444 95.6415 17.4444 95.6957 17.3889C95.7498 17.3333 95.7498 17.3333 95.8039 17.2777V19.5C95.1544 19.7777 94.3966 19.9444 93.5847 19.9444C92.0691 19.9444 90.8783 19.3889 90.0122 18.2777C89.1462 17.1666 88.659 15.7222 88.659 14.0555C88.659 12 89.1462 10.3889 90.1205 9.22222C91.0948 8.05556 92.3397 7.5 93.8553 7.5C94.6131 7.5 95.2626 7.61111 95.8039 7.77778V9.94444C95.3709 9.49999 94.7214 9.27777 93.8553 9.27777C92.6104 9.27777 91.7443 9.88888 91.203 11.1111C90.8783 11.8889 90.6618 12.8889 90.6618 14.0555C90.6618 15.2222 90.9324 16.2222 91.4196 17C91.9067 17.7777 92.6645 18.2222 93.6929 18.2222C94.5048 18.2777 95.1003 18 95.5874 17.5Z" fill="#FFCC09"/>
<path id="Vector_9" d="M107.714 9.3331C108.039 9.99976 108.201 10.9442 108.201 12.1109V19.8331H106.199V12.2775C106.199 11.3886 106.09 10.722 105.874 10.3331C105.495 9.66643 104.845 9.3331 103.871 9.3331C103.059 9.3331 102.301 9.61087 101.652 10.222C101.002 10.7775 100.678 11.8886 100.678 13.4997V19.8886H98.7291V12.6664V8.8331V4.27756C98.7291 4.11089 98.7832 3.99978 98.8374 3.83311C98.8915 3.722 98.9998 3.61089 99.108 3.49978C99.2163 3.38867 99.4328 3.38867 99.7034 3.38867C99.974 3.38867 100.136 3.44423 100.245 3.49978C100.353 3.61089 100.461 3.66645 100.515 3.83311C100.569 3.94423 100.624 4.11089 100.624 4.27756V9.44421C100.84 9.16643 101.057 8.88865 101.273 8.66643C101.49 8.44421 101.652 8.27754 101.868 8.16643C102.518 7.72199 103.276 7.55532 104.25 7.55532C105.982 7.55532 107.119 8.16643 107.714 9.3331Z" fill="#FFCC09"/>
<path id="Vector_10" d="M112.747 1.05555V5.11109H111.664V1.05555H110.149V0L114.263 0V1.05555H112.747Z" fill="#FFCC09"/>
<path id="Vector_11" d="M118.973 5.11109V1.77777L117.566 3.94443H117.511L116.104 1.77777V5.11109H115.022V0L116.212 0L117.511 2.16666L118.811 0L120.001 0V5.11109H118.973Z" fill="#FFCC09"/>
</g>
</svg>
