<?xml version="1.0" encoding="UTF-8"?>
<svg xmlns="http://www.w3.org/2000/svg" xmlns:xlink="http://www.w3.org/1999/xlink" width="400pt" height="400pt" viewBox="0 0 400 400" version="1.1">
<g id="surface1">
<path style=" stroke:none;fill-rule:nonzero;fill:#ffd700;fill-opacity:1;" d="M 221.589844 0.171875 L 223.609375 0.375 L 225.613281 0.664062 L 227.578125 1.023438 L 229.523438 1.460938 L 231.441406 1.972656 L 233.324219 2.5625 L 235.179688 3.214844 L 236.996094 3.941406 L 238.78125 4.730469 L 240.519531 5.597656 L 242.230469 6.515625 L 243.894531 7.503906 L 245.523438 8.558594 L 247.105469 9.664062 L 248.632812 10.832031 L 250.125 12.050781 L 251.5625 13.332031 L 252.949219 14.667969 L 254.289062 16.050781 L 255.570312 17.484375 L 256.796875 18.96875 L 257.972656 20.496094 L 259.082031 22.070312 L 260.136719 23.683594 L 261.128906 25.347656 L 262.054688 27.050781 L 262.921875 28.785156 L 263.722656 30.5625 L 264.445312 32.375 L 265.105469 34.214844 L 265.695312 36.097656 L 266.207031 38.003906 L 266.644531 39.941406 L 267.011719 41.90625 L 267.300781 43.894531 L 267.503906 45.914062 L 267.625 47.949219 L 267.667969 50.003906 L 267.667969 100.007812 L 267.652344 100.691406 L 267.617188 101.371094 L 267.546875 102.042969 L 267.449219 102.703125 L 267.328125 103.359375 L 267.1875 104.007812 L 267.011719 104.640625 L 266.816406 105.273438 L 266.597656 105.882812 L 266.359375 106.484375 L 266.09375 107.082031 L 265.800781 107.660156 L 265.492188 108.226562 L 265.167969 108.785156 L 264.8125 109.316406 L 264.445312 109.84375 L 264.050781 110.351562 L 263.644531 110.847656 L 263.214844 111.320312 L 262.773438 111.789062 L 262.3125 112.226562 L 261.832031 112.65625 L 261.332031 113.0625 L 260.820312 113.453125 L 260.300781 113.824219 L 259.757812 114.167969 L 259.203125 114.5 L 258.628906 114.808594 L 258.050781 115.097656 L 257.453125 115.359375 L 256.851562 115.601562 L 256.234375 115.820312 L 255.601562 116.015625 L 254.960938 116.179688 L 254.3125 116.332031 L 253.65625 116.453125 L 252.988281 116.542969 L 252.308594 116.609375 L 251.632812 116.65625 L 250.9375 116.671875 L 250.246094 116.65625 L 249.566406 116.609375 L 248.890625 116.542969 L 248.21875 116.453125 L 247.5625 116.332031 L 246.914062 116.179688 L 246.273438 116.015625 L 245.648438 115.820312 L 245.03125 115.601562 L 244.421875 115.359375 L 243.828125 115.097656 L 243.246094 114.808594 L 242.675781 114.5 L 242.125 114.167969 L 241.582031 113.824219 L 241.054688 113.453125 L 240.542969 113.0625 L 240.046875 112.65625 L 239.570312 112.226562 L 239.105469 111.789062 L 238.660156 111.320312 L 238.230469 110.847656 L 237.824219 110.351562 L 237.429688 109.84375 L 237.0625 109.316406 L 236.714844 108.785156 L 236.382812 108.226562 L 236.074219 107.660156 L 235.789062 107.082031 L 235.527344 106.484375 L 235.285156 105.882812 L 235.066406 105.273438 L 234.871094 104.640625 L 234.695312 104.007812 L 234.554688 103.359375 L 234.433594 102.703125 L 234.335938 102.042969 L 234.265625 101.371094 L 234.222656 100.691406 L 234.207031 100.007812 L 234.207031 50.003906 L 234.199219 49.316406 L 234.15625 48.640625 L 234.085938 47.96875 L 233.988281 47.308594 L 233.867188 46.652344 L 233.726562 46.003906 L 233.550781 45.371094 L 233.355469 44.746094 L 233.136719 44.128906 L 232.894531 43.527344 L 232.632812 42.929688 L 232.339844 42.351562 L 232.03125 41.785156 L 231.707031 41.234375 L 231.351562 40.691406 L 230.984375 40.164062 L 230.589844 39.660156 L 230.183594 39.164062 L 229.753906 38.6875 L 229.3125 38.230469 L 228.84375 37.785156 L 228.367188 37.355469 L 227.871094 36.949219 L 227.359375 36.558594 L 226.832031 36.1875 L 226.289062 35.84375 L 225.734375 35.511719 L 225.167969 35.203125 L 224.585938 34.914062 L 223.992188 34.652344 L 223.382812 34.402344 L 222.765625 34.183594 L 222.140625 33.996094 L 221.5 33.824219 L 220.851562 33.671875 L 220.195312 33.550781 L 219.527344 33.460938 L 218.855469 33.394531 L 218.167969 33.347656 L 217.476562 33.332031 L 139.554688 33.332031 L 144.503906 34.992188 L 145.523438 35.359375 L 146.523438 35.757812 L 147.511719 36.1875 L 148.46875 36.640625 L 149.417969 37.121094 L 150.34375 37.632812 L 151.246094 38.167969 L 152.128906 38.734375 L 152.996094 39.320312 L 153.839844 39.933594 L 154.660156 40.566406 L 155.464844 41.226562 L 156.242188 41.90625 L 156.996094 42.613281 L 157.734375 43.335938 L 158.441406 44.082031 L 159.125 44.851562 L 159.78125 45.632812 L 160.421875 46.441406 L 161.03125 47.269531 L 161.621094 48.105469 L 162.175781 48.964844 L 162.703125 49.839844 L 163.210938 50.734375 L 163.691406 51.636719 L 164.144531 52.558594 L 164.566406 53.5 L 164.957031 54.449219 L 165.316406 55.40625 L 165.65625 56.382812 L 165.957031 57.371094 L 166.238281 58.367188 L 166.476562 59.375 L 166.6875 60.390625 L 166.878906 61.417969 L 167.019531 62.457031 L 167.140625 63.496094 L 167.222656 64.550781 L 167.277344 65.605469 L 167.292969 66.675781 L 167.292969 316.671875 L 217.476562 316.671875 L 218.167969 316.65625 L 218.855469 316.609375 L 219.527344 316.542969 L 220.195312 316.453125 L 220.851562 316.332031 L 221.5 316.179688 L 222.140625 316.015625 L 222.765625 315.820312 L 223.382812 315.601562 L 223.992188 315.351562 L 224.585938 315.089844 L 225.167969 314.800781 L 225.734375 314.492188 L 226.289062 314.160156 L 226.832031 313.816406 L 227.359375 313.445312 L 227.871094 313.054688 L 228.367188 312.648438 L 228.84375 312.226562 L 229.3125 311.78125 L 229.753906 311.316406 L 230.183594 310.839844 L 230.589844 310.34375 L 230.984375 309.839844 L 231.351562 309.3125 L 231.707031 308.769531 L 232.03125 308.21875 L 232.339844 307.652344 L 232.632812 307.074219 L 232.894531 306.476562 L 233.136719 305.875 L 233.355469 305.265625 L 233.550781 304.632812 L 233.726562 304 L 233.867188 303.351562 L 233.988281 302.703125 L 234.085938 302.042969 L 234.15625 301.371094 L 234.199219 300.683594 L 234.207031 300.007812 L 234.207031 233.332031 L 234.222656 232.648438 L 234.265625 231.96875 L 234.335938 231.300781 L 234.433594 230.636719 L 234.554688 229.980469 L 234.695312 229.332031 L 234.871094 228.691406 L 235.066406 228.066406 L 235.285156 227.457031 L 235.527344 226.847656 L 235.789062 226.261719 L 236.074219 225.679688 L 236.382812 225.113281 L 236.714844 224.558594 L 237.0625 224.023438 L 237.429688 223.496094 L 237.824219 222.984375 L 238.230469 222.492188 L 238.660156 222.011719 L 239.105469 221.550781 L 239.570312 221.105469 L 240.046875 220.683594 L 240.542969 220.269531 L 241.054688 219.886719 L 241.582031 219.519531 L 242.125 219.164062 L 242.675781 218.839844 L 243.246094 218.53125 L 243.828125 218.246094 L 244.421875 217.980469 L 245.03125 217.738281 L 245.648438 217.523438 L 246.273438 217.324219 L 246.914062 217.152344 L 247.5625 217.007812 L 248.21875 216.890625 L 248.890625 216.789062 L 249.566406 216.722656 L 250.246094 216.683594 L 250.9375 216.671875 L 251.632812 216.683594 L 252.308594 216.722656 L 252.988281 216.789062 L 253.65625 216.890625 L 254.3125 217.007812 L 254.960938 217.152344 L 255.601562 217.324219 L 256.234375 217.523438 L 256.851562 217.738281 L 257.453125 217.980469 L 258.050781 218.246094 L 258.628906 218.53125 L 259.203125 218.839844 L 259.757812 219.164062 L 260.300781 219.519531 L 260.820312 219.886719 L 261.332031 220.269531 L 261.832031 220.683594 L 262.3125 221.105469 L 262.773438 221.550781 L 263.214844 222.011719 L 263.644531 222.492188 L 264.050781 222.984375 L 264.445312 223.496094 L 264.8125 224.023438 L 265.167969 224.558594 L 265.492188 225.113281 L 265.800781 225.679688 L 266.09375 226.261719 L 266.359375 226.847656 L 266.597656 227.457031 L 266.816406 228.066406 L 267.011719 228.691406 L 267.1875 229.332031 L 267.328125 229.980469 L 267.449219 230.636719 L 267.546875 231.300781 L 267.617188 231.96875 L 267.652344 232.648438 L 267.667969 233.332031 L 267.667969 300.007812 L 267.625 302.0625 L 267.503906 304.097656 L 267.300781 306.109375 L 267.011719 308.097656 L 266.644531 310.0625 L 266.207031 312 L 265.695312 313.914062 L 265.105469 315.789062 L 264.445312 317.632812 L 263.722656 319.441406 L 262.921875 321.21875 L 262.054688 322.960938 L 261.128906 324.65625 L 260.136719 326.320312 L 259.082031 327.933594 L 257.972656 329.507812 L 256.796875 331.035156 L 255.570312 332.519531 L 254.289062 333.949219 L 252.949219 335.335938 L 251.5625 336.671875 L 250.125 337.949219 L 248.632812 339.171875 L 247.105469 340.339844 L 245.523438 341.445312 L 243.894531 342.5 L 242.230469 343.488281 L 240.519531 344.40625 L 238.78125 345.273438 L 236.996094 346.0625 L 235.179688 346.789062 L 233.324219 347.449219 L 231.441406 348.03125 L 229.523438 348.542969 L 227.578125 348.980469 L 225.613281 349.339844 L 223.609375 349.628906 L 221.589844 349.832031 L 219.546875 349.957031 L 217.476562 350.003906 L 167.292969 350.003906 L 167.292969 366.667969 L 167.261719 368.039062 L 167.179688 369.402344 L 167.042969 370.742188 L 166.855469 372.066406 L 166.613281 373.378906 L 166.320312 374.667969 L 165.972656 375.941406 L 165.582031 377.191406 L 165.144531 378.425781 L 164.65625 379.632812 L 164.128906 380.8125 L 163.554688 381.972656 L 162.929688 383.109375 L 162.273438 384.210938 L 161.574219 385.296875 L 160.828125 386.34375 L 160.046875 387.359375 L 159.230469 388.347656 L 158.371094 389.304688 L 157.484375 390.230469 L 156.558594 391.117188 L 155.601562 391.96875 L 154.605469 392.785156 L 153.582031 393.558594 L 152.527344 394.296875 L 151.449219 395 L 150.335938 395.660156 L 149.199219 396.269531 L 148.039062 396.851562 L 146.847656 397.378906 L 145.632812 397.859375 L 144.398438 398.296875 L 143.140625 398.6875 L 141.867188 399.027344 L 140.574219 399.320312 L 139.253906 399.5625 L 137.921875 399.75 L 136.574219 399.886719 L 135.210938 399.96875 L 133.832031 400 L 133.304688 400 L 133.03125 399.992188 L 132.769531 399.984375 L 132.503906 399.976562 L 132.242188 399.960938 L 131.976562 399.953125 L 131.714844 399.941406 L 131.449219 399.925781 L 131.1875 399.902344 L 130.929688 399.886719 L 130.667969 399.863281 L 130.402344 399.84375 L 130.148438 399.8125 L 129.882812 399.789062 L 129.628906 399.757812 L 129.363281 399.730469 L 129.105469 399.691406 L 128.851562 399.652344 L 128.59375 399.617188 L 128.332031 399.578125 L 128.074219 399.539062 L 127.820312 399.496094 L 127.5625 399.449219 L 127.308594 399.40625 L 127.050781 399.351562 L 126.789062 399.300781 L 126.53125 399.246094 L 126.273438 399.195312 L 126.019531 399.132812 L 125.761719 399.074219 L 125.507812 399.011719 L 125.25 398.953125 L 124.996094 398.886719 L 124.746094 398.816406 L 124.488281 398.75 L 124.234375 398.675781 L 123.976562 398.605469 L 123.722656 398.523438 L 123.464844 398.449219 L 22.789062 365.015625 L 21.769531 364.648438 L 20.769531 364.25 L 19.78125 363.820312 L 18.824219 363.359375 L 17.875 362.878906 L 16.949219 362.367188 L 16.046875 361.832031 L 15.164062 361.265625 L 14.296875 360.679688 L 13.453125 360.066406 L 12.632812 359.433594 L 11.828125 358.773438 L 11.050781 358.09375 L 10.296875 357.386719 L 9.558594 356.664062 L 8.851562 355.917969 L 8.164062 355.148438 L 7.511719 354.367188 L 6.871094 353.558594 L 6.261719 352.738281 L 5.671875 351.894531 L 5.113281 351.035156 L 4.585938 350.160156 L 4.082031 349.273438 L 3.601562 348.363281 L 3.148438 347.441406 L 2.726562 346.507812 L 2.335938 345.558594 L 1.972656 344.59375 L 1.632812 343.625 L 1.332031 342.636719 L 1.054688 341.640625 L 0.8125 340.632812 L 0.601562 339.617188 L 0.414062 338.582031 L 0.269531 337.550781 L 0.152344 336.503906 L 0.0664062 335.457031 L 0.015625 334.394531 L 0 333.332031 L 0 33.332031 L 0.03125 31.960938 L 0.113281 30.605469 L 0.25 29.265625 L 0.4375 27.933594 L 0.679688 26.628906 L 0.972656 25.332031 L 1.316406 24.058594 L 1.710938 22.808594 L 2.148438 21.582031 L 2.636719 20.367188 L 3.164062 19.1875 L 3.738281 18.027344 L 4.363281 16.894531 L 5.015625 15.789062 L 5.71875 14.710938 L 6.464844 13.664062 L 7.246094 12.640625 L 8.058594 11.652344 L 8.917969 10.695312 L 9.808594 9.777344 L 10.734375 8.890625 L 11.699219 8.039062 L 12.683594 7.222656 L 13.710938 6.441406 L 14.765625 5.703125 L 15.847656 5 L 16.957031 4.347656 L 18.09375 3.730469 L 19.261719 3.15625 L 20.445312 2.628906 L 21.65625 2.148438 L 22.894531 1.703125 L 24.152344 1.316406 L 25.429688 0.972656 L 26.726562 0.683594 L 28.039062 0.445312 L 29.371094 0.25 L 30.71875 0.113281 L 32.082031 0.03125 L 33.460938 0.0078125 L 33.640625 0.0078125 L 33.703125 0.015625 L 33.761719 0.015625 L 33.824219 0.0234375 L 33.882812 0.03125 L 33.945312 0.0390625 L 34.003906 0.046875 L 34.0625 0.0507812 L 34.125 0.0585938 L 34.183594 0.0664062 L 34.246094 0.0820312 L 34.304688 0.0898438 L 34.367188 0.105469 L 34.425781 0.113281 L 34.484375 0.128906 L 34.539062 0.136719 L 34.597656 0.152344 L 34.660156 0.164062 L 34.71875 0.171875 L 34.78125 0.1875 L 34.839844 0.203125 L 34.898438 0.210938 L 34.953125 0.226562 L 35.011719 0.242188 L 35.074219 0.25 L 35.132812 0.261719 L 35.195312 0.269531 L 35.253906 0.285156 L 35.316406 0.292969 L 35.375 0.308594 L 35.433594 0.316406 L 35.496094 0.324219 L 35.554688 0.339844 L 35.617188 0.347656 L 35.667969 0.355469 L 35.730469 0.363281 L 35.789062 0.367188 L 35.855469 0.367188 L 35.902344 0.363281 L 35.949219 0.355469 L 35.992188 0.347656 L 36.039062 0.339844 L 36.082031 0.332031 L 36.128906 0.324219 L 36.171875 0.308594 L 36.210938 0.300781 L 36.257812 0.292969 L 36.300781 0.277344 L 36.347656 0.269531 L 36.390625 0.257812 L 36.4375 0.242188 L 36.472656 0.234375 L 36.566406 0.203125 L 36.609375 0.195312 L 36.648438 0.179688 L 36.691406 0.164062 L 36.738281 0.15625 L 36.785156 0.144531 L 36.828125 0.136719 L 36.867188 0.121094 L 36.910156 0.113281 L 36.957031 0.0976562 L 37 0.0898438 L 37.046875 0.0742188 L 37.09375 0.0664062 L 37.136719 0.0585938 L 37.175781 0.0507812 L 37.21875 0.046875 L 37.3125 0.03125 L 37.363281 0.0234375 L 37.410156 0.015625 L 37.453125 0.015625 L 37.5 0.0078125 L 217.476562 0.0078125 L 219.546875 0.046875 Z M 130.546875 174.042969 L 129.6875 174.167969 L 128.835938 174.351562 L 128 174.578125 L 127.179688 174.847656 L 126.367188 175.171875 L 125.558594 175.53125 L 124.777344 175.949219 L 124.007812 176.398438 L 123.246094 176.894531 L 122.507812 177.429688 L 121.785156 178.011719 L 121.078125 178.628906 L 120.382812 179.285156 L 119.714844 179.96875 L 119.066406 180.699219 L 118.433594 181.46875 L 117.824219 182.265625 L 117.234375 183.097656 L 116.671875 183.960938 L 116.121094 184.859375 L 115.601562 185.785156 L 115.105469 186.742188 L 114.636719 187.722656 L 114.183594 188.738281 L 113.761719 189.769531 L 113.371094 190.832031 L 113.007812 191.925781 L 112.671875 193.03125 L 112.363281 194.160156 L 112.082031 195.316406 L 111.835938 196.488281 L 111.617188 197.6875 L 111.425781 198.894531 L 111.269531 200.128906 L 111.148438 201.371094 L 111.066406 202.628906 L 111.011719 203.902344 L 110.992188 205.191406 L 111.011719 206.476562 L 111.066406 207.75 L 111.148438 209.007812 L 111.269531 210.261719 L 111.425781 211.488281 L 111.617188 212.691406 L 111.835938 213.890625 L 112.082031 215.066406 L 112.363281 216.21875 L 112.671875 217.347656 L 113.007812 218.464844 L 113.371094 219.546875 L 113.761719 220.609375 L 114.183594 221.648438 L 114.636719 222.660156 L 115.105469 223.636719 L 115.601562 224.59375 L 116.121094 225.523438 L 116.671875 226.417969 L 117.234375 227.285156 L 117.824219 228.113281 L 118.433594 228.910156 L 119.066406 229.679688 L 119.714844 230.410156 L 120.382812 231.105469 L 121.078125 231.757812 L 121.785156 232.375 L 122.507812 232.949219 L 123.246094 233.484375 L 124.007812 233.980469 L 124.777344 234.433594 L 125.558594 234.847656 L 126.367188 235.210938 L 127.179688 235.53125 L 128 235.804688 L 128.835938 236.03125 L 129.6875 236.210938 L 130.546875 236.339844 L 131.414062 236.414062 L 132.292969 236.445312 L 133.167969 236.414062 L 134.042969 236.339844 L 134.898438 236.210938 L 135.742188 236.03125 L 136.578125 235.804688 L 137.410156 235.53125 L 138.222656 235.210938 L 139.019531 234.847656 L 139.804688 234.433594 L 140.578125 233.980469 L 141.332031 233.484375 L 142.078125 232.949219 L 142.800781 232.375 L 143.511719 231.757812 L 144.195312 231.105469 L 144.867188 230.410156 L 145.523438 229.679688 L 146.148438 228.910156 L 146.757812 228.113281 L 147.351562 227.285156 L 147.917969 226.417969 L 148.460938 225.523438 L 148.980469 224.59375 L 149.476562 223.636719 L 149.949219 222.660156 L 150.394531 221.648438 L 150.816406 220.609375 L 151.210938 219.546875 L 151.578125 218.464844 L 151.917969 217.347656 L 152.226562 216.21875 L 152.503906 215.066406 L 152.753906 213.890625 L 152.972656 212.691406 L 153.160156 211.488281 L 153.3125 210.261719 L 153.429688 209.007812 L 153.523438 207.75 L 153.574219 206.476562 L 153.589844 205.191406 L 153.574219 203.902344 L 153.523438 202.628906 L 153.429688 201.371094 L 153.3125 200.128906 L 153.160156 198.894531 L 152.972656 197.6875 L 152.753906 196.488281 L 152.503906 195.316406 L 152.226562 194.160156 L 151.917969 193.03125 L 151.578125 191.925781 L 151.210938 190.832031 L 150.816406 189.769531 L 150.394531 188.738281 L 149.949219 187.722656 L 149.476562 186.742188 L 148.980469 185.785156 L 148.460938 184.859375 L 147.917969 183.960938 L 147.351562 183.097656 L 146.757812 182.265625 L 146.148438 181.46875 L 145.523438 180.699219 L 144.867188 179.96875 L 144.195312 179.285156 L 143.511719 178.628906 L 142.800781 178.011719 L 142.078125 177.429688 L 141.332031 176.894531 L 140.578125 176.398438 L 139.804688 175.949219 L 139.019531 175.53125 L 138.222656 175.171875 L 137.410156 174.847656 L 136.578125 174.578125 L 135.742188 174.351562 L 134.898438 174.167969 L 134.042969 174.042969 L 133.167969 173.964844 L 132.292969 173.945312 L 131.414062 173.964844 Z M 130.546875 174.042969 "/>
<path style=" stroke:none;fill-rule:nonzero;fill:#ffd700;fill-opacity:1;" d="M 318.703125 83.667969 L 319.195312 83.699219 L 319.675781 83.742188 L 320.15625 83.804688 L 320.640625 83.878906 L 321.113281 83.96875 L 321.589844 84.074219 L 322.0625 84.1875 L 322.53125 84.316406 L 323 84.460938 L 323.457031 84.617188 L 323.917969 84.789062 L 324.367188 84.972656 L 324.8125 85.167969 L 325.257812 85.378906 L 325.695312 85.605469 L 326.125 85.839844 L 326.546875 86.085938 L 326.96875 86.351562 L 327.375 86.628906 L 327.78125 86.914062 L 328.179688 87.214844 L 328.566406 87.53125 L 328.949219 87.863281 L 329.316406 88.203125 L 329.679688 88.558594 L 396.601562 155.472656 L 397.078125 155.96875 L 397.535156 156.480469 L 397.964844 157.007812 L 398.367188 157.542969 L 398.75 158.09375 L 399.105469 158.660156 L 399.433594 159.230469 L 399.742188 159.8125 L 400.023438 160.40625 L 400.277344 161 L 400.511719 161.613281 L 400.722656 162.230469 L 400.902344 162.847656 L 401.0625 163.472656 L 401.199219 164.105469 L 401.3125 164.738281 L 401.394531 165.378906 L 401.453125 166.011719 L 401.492188 166.660156 L 401.507812 167.300781 L 401.492188 167.941406 L 401.453125 168.578125 L 401.394531 169.21875 L 401.3125 169.851562 L 401.199219 170.492188 L 401.0625 171.117188 L 400.902344 171.742188 L 400.722656 172.367188 L 400.511719 172.980469 L 400.277344 173.589844 L 400.023438 174.191406 L 399.742188 174.78125 L 399.433594 175.367188 L 399.105469 175.941406 L 398.75 176.496094 L 398.367188 177.046875 L 397.964844 177.589844 L 397.535156 178.117188 L 397.078125 178.628906 L 396.601562 179.125 L 329.679688 246.042969 L 329.316406 246.394531 L 328.949219 246.734375 L 328.566406 247.066406 L 328.179688 247.375 L 327.78125 247.675781 L 327.375 247.96875 L 326.96875 248.242188 L 326.546875 248.503906 L 326.125 248.753906 L 325.695312 248.996094 L 325.257812 249.210938 L 324.8125 249.421875 L 324.367188 249.621094 L 323.917969 249.808594 L 323.457031 249.972656 L 323 250.132812 L 322.53125 250.273438 L 322.0625 250.402344 L 321.589844 250.523438 L 321.113281 250.621094 L 320.640625 250.710938 L 320.15625 250.789062 L 319.675781 250.847656 L 319.195312 250.894531 L 318.703125 250.921875 L 318.222656 250.9375 L 317.734375 250.945312 L 317.242188 250.9375 L 316.753906 250.90625 L 316.261719 250.871094 L 315.773438 250.816406 L 315.292969 250.75 L 314.800781 250.667969 L 314.320312 250.570312 L 313.832031 250.457031 L 313.347656 250.328125 L 312.875 250.183594 L 312.390625 250.027344 L 311.917969 249.859375 L 311.449219 249.671875 L 310.984375 249.46875 L 310.53125 249.257812 L 310.085938 249.03125 L 309.640625 248.789062 L 309.210938 248.542969 L 308.789062 248.277344 L 308.382812 248 L 307.976562 247.714844 L 307.585938 247.421875 L 307.203125 247.109375 L 306.832031 246.792969 L 306.472656 246.472656 L 306.117188 246.132812 L 305.769531 245.777344 L 305.4375 245.421875 L 305.121094 245.054688 L 304.8125 244.683594 L 304.511719 244.300781 L 304.226562 243.910156 L 303.949219 243.503906 L 303.683594 243.097656 L 303.433594 242.683594 L 303.195312 242.261719 L 302.960938 241.832031 L 302.75 241.394531 L 302.546875 240.949219 L 302.359375 240.496094 L 302.175781 240.046875 L 302.011719 239.585938 L 301.859375 239.117188 L 301.726562 238.644531 L 301.605469 238.167969 L 301.492188 237.6875 L 301.394531 237.207031 L 301.3125 236.714844 L 301.242188 236.21875 L 301.199219 235.722656 L 301.160156 235.222656 L 301.128906 234.71875 L 301.121094 234.214844 L 301.121094 184.03125 L 234.207031 184.03125 L 233.523438 184.015625 L 232.835938 183.96875 L 232.164062 183.902344 L 231.496094 183.804688 L 230.839844 183.683594 L 230.191406 183.539062 L 229.550781 183.367188 L 228.925781 183.171875 L 228.308594 182.953125 L 227.699219 182.710938 L 227.105469 182.449219 L 226.523438 182.160156 L 225.957031 181.851562 L 225.402344 181.523438 L 224.859375 181.167969 L 224.332031 180.796875 L 223.820312 180.40625 L 223.320312 180 L 222.847656 179.570312 L 222.378906 179.125 L 221.9375 178.660156 L 221.507812 178.183594 L 221.101562 177.6875 L 220.707031 177.175781 L 220.339844 176.648438 L 219.984375 176.105469 L 219.660156 175.554688 L 219.351562 174.984375 L 219.058594 174.402344 L 218.792969 173.808594 L 218.554688 173.199219 L 218.335938 172.578125 L 218.140625 171.953125 L 217.964844 171.316406 L 217.824219 170.667969 L 217.703125 170.011719 L 217.605469 169.339844 L 217.535156 168.671875 L 217.492188 167.984375 L 217.476562 167.300781 L 217.492188 166.605469 L 217.535156 165.921875 L 217.605469 165.25 L 217.703125 164.578125 L 217.824219 163.925781 L 217.964844 163.277344 L 218.140625 162.636719 L 218.335938 162.011719 L 218.554688 161.394531 L 218.792969 160.785156 L 219.058594 160.195312 L 219.351562 159.609375 L 219.660156 159.042969 L 219.984375 158.484375 L 220.339844 157.945312 L 220.707031 157.417969 L 221.101562 156.902344 L 221.507812 156.414062 L 221.9375 155.933594 L 222.378906 155.472656 L 222.847656 155.019531 L 223.320312 154.597656 L 223.820312 154.183594 L 224.332031 153.800781 L 224.859375 153.421875 L 225.402344 153.078125 L 225.957031 152.746094 L 226.523438 152.4375 L 227.105469 152.152344 L 227.699219 151.886719 L 228.308594 151.636719 L 228.925781 151.421875 L 229.550781 151.222656 L 230.191406 151.058594 L 230.839844 150.90625 L 231.496094 150.789062 L 232.164062 150.6875 L 232.835938 150.621094 L 233.523438 150.582031 L 234.207031 150.570312 L 301.121094 150.570312 L 301.121094 100.382812 L 301.128906 99.871094 L 301.160156 99.375 L 301.199219 98.871094 L 301.242188 98.371094 L 301.3125 97.882812 L 301.394531 97.394531 L 301.492188 96.902344 L 301.605469 96.429688 L 301.726562 95.949219 L 301.859375 95.480469 L 302.011719 95.011719 L 302.175781 94.554688 L 302.359375 94.09375 L 302.546875 93.640625 L 302.75 93.207031 L 302.960938 92.769531 L 303.195312 92.339844 L 303.433594 91.910156 L 303.683594 91.496094 L 303.949219 91.089844 L 304.226562 90.6875 L 304.511719 90.296875 L 304.8125 89.914062 L 305.121094 89.535156 L 305.4375 89.167969 L 305.769531 88.8125 L 306.117188 88.46875 L 306.472656 88.128906 L 306.832031 87.796875 L 307.203125 87.480469 L 307.585938 87.171875 L 307.976562 86.878906 L 308.382812 86.589844 L 308.789062 86.3125 L 309.210938 86.050781 L 309.640625 85.800781 L 310.085938 85.558594 L 310.53125 85.332031 L 310.984375 85.121094 L 311.449219 84.917969 L 311.917969 84.730469 L 312.390625 84.566406 L 312.875 84.40625 L 313.347656 84.261719 L 313.832031 84.136719 L 314.320312 84.023438 L 314.800781 83.925781 L 315.292969 83.84375 L 315.773438 83.773438 L 316.261719 83.722656 L 316.753906 83.683594 L 317.242188 83.660156 L 317.734375 83.644531 L 318.222656 83.652344 Z M 318.703125 83.667969 "/>
</g>
</svg>
