<svg width="72" height="72" viewBox="0 0 72 72" fill="none" xmlns="http://www.w3.org/2000/svg">
<path d="M55.8 14.4H39.6V24.3V32.4H55.8M52.2 23.4H46.8" stroke="#FFCC09" stroke-width="3.6" stroke-linecap="round" stroke-linejoin="round"/>
<path d="M39.6 39.6L39.6 57.6M55.8 39.6V48.6M55.8 57.6V48.6M46.8 48.6H55.8" stroke="#FFCC09" stroke-width="3.6" stroke-linecap="round" stroke-linejoin="round"/>
<path d="M30.6 32.4V14.4L22.5 25.2L14.4 14.4L14.7099 14.8132M14.4 32.4V25.2" stroke="#FFCC09" stroke-width="3.6" stroke-linecap="round" stroke-linejoin="round"/>
<path d="M30.6 39.6H18.9C16.4147 39.6 14.4 41.6147 14.4 44.1C14.4 46.5853 16.4147 48.6 18.9 48.6H23.4M14.4 57.6H26.1C28.5853 57.6 30.6 55.5853 30.6 53.1C30.6 50.6147 28.5853 48.6 26.1 48.6H21.6" stroke="#FFCC09" stroke-width="3.6" stroke-linecap="round"/>
</svg>
