<svg width="64" height="64" viewBox="0 0 64 64" fill="none" xmlns="http://www.w3.org/2000/svg">
<g id="Occupied-Icon">
<path id="Rectangle 1510" d="M42.4399 8H17.5601C15.5939 8 14 9.59391 14 11.5601V19V41V48.4399C14 50.4061 15.5939 52 17.5601 52H42.4399C44.4061 52 46 50.4061 46 48.4399V11.5601C46 9.59391 44.4061 8 42.4399 8Z" stroke="#5CA100" stroke-width="3.56009" stroke-linecap="round"/>
<path id="Subtract" fill-rule="evenodd" clip-rule="evenodd" d="M23.9956 12.3159C22.4311 12.7269 21.3403 14.1412 21.3403 15.7589V56.438C21.3403 58.7714 23.5477 60.4738 25.8045 59.8809L45.3836 54.7377C46.9481 54.3267 48.0389 52.9124 48.0389 51.2947V10.6156C48.0389 8.28222 45.8315 6.57984 43.5747 7.17268L23.9956 12.3159ZM26.2351 37.4879C27.4638 37.4879 28.4599 36.1141 28.4599 34.4195C28.4599 32.7249 27.4638 31.3511 26.2351 31.3511C25.0063 31.3511 24.0103 32.7249 24.0103 34.4195C24.0103 36.1141 25.0063 37.4879 26.2351 37.4879Z" fill="#5CA100"/>
</g>
</svg>
