<?xml version="1.0" encoding="UTF-8"?>
<svg xmlns="http://www.w3.org/2000/svg" xmlns:xlink="http://www.w3.org/1999/xlink" width="400pt" height="400pt" viewBox="0 0 400 400" version="1.1">
<g id="surface1">
<path style=" stroke:none;fill-rule:nonzero;fill:#ffd700;fill-opacity:1;" d="M 100.347656 0.0078125 L 100.40625 0.015625 L 100.46875 0.015625 L 100.527344 0.0234375 L 100.648438 0.0390625 L 100.707031 0.046875 L 100.769531 0.0585938 L 100.828125 0.0664062 L 100.890625 0.0742188 L 100.957031 0.0898438 L 101.007812 0.0976562 L 101.070312 0.113281 L 101.121094 0.121094 L 101.183594 0.136719 L 101.25 0.144531 L 101.304688 0.15625 L 101.371094 0.171875 L 101.421875 0.179688 L 101.484375 0.195312 L 101.542969 0.210938 L 101.597656 0.21875 L 101.664062 0.234375 L 101.726562 0.25 L 101.785156 0.257812 L 101.84375 0.269531 L 101.90625 0.277344 L 101.964844 0.292969 L 102.027344 0.300781 L 102.085938 0.316406 L 102.140625 0.324219 L 102.199219 0.332031 L 102.261719 0.339844 L 102.320312 0.347656 L 102.441406 0.363281 L 102.5 0.367188 L 102.554688 0.363281 L 102.644531 0.347656 L 102.6875 0.339844 L 102.734375 0.332031 L 102.78125 0.316406 L 102.816406 0.308594 L 102.863281 0.292969 L 102.953125 0.277344 L 103 0.261719 L 103.042969 0.25 L 103.082031 0.242188 L 103.125 0.226562 L 103.179688 0.21875 L 103.214844 0.203125 L 103.269531 0.1875 L 103.300781 0.179688 L 103.351562 0.164062 L 103.390625 0.152344 L 103.441406 0.144531 L 103.480469 0.128906 L 103.519531 0.121094 L 103.570312 0.105469 L 103.609375 0.0976562 L 103.660156 0.0820312 L 103.707031 0.0742188 L 103.75 0.0585938 L 103.789062 0.0507812 L 103.835938 0.046875 L 103.878906 0.0390625 L 103.925781 0.03125 L 104.015625 0.015625 L 104.066406 0.015625 L 104.113281 0.0078125 L 104.15625 0.0078125 L 104.203125 0 L 284.8125 0 L 286.894531 0.046875 L 288.941406 0.164062 L 290.96875 0.367188 L 292.980469 0.65625 L 294.953125 1.015625 L 296.902344 1.460938 L 298.832031 1.972656 L 300.722656 2.5625 L 302.582031 3.222656 L 304.40625 3.953125 L 306.191406 4.746094 L 307.949219 5.613281 L 309.65625 6.539062 L 311.328125 7.53125 L 312.964844 8.578125 L 314.546875 9.695312 L 316.082031 10.863281 L 317.582031 12.097656 L 319.027344 13.378906 L 320.414062 14.710938 L 321.761719 16.105469 L 323.050781 17.550781 L 324.285156 19.035156 L 325.460938 20.566406 L 326.578125 22.148438 L 327.632812 23.773438 L 328.632812 25.4375 L 329.558594 27.140625 L 330.433594 28.894531 L 331.222656 30.675781 L 331.953125 32.488281 L 332.625 34.34375 L 333.210938 36.226562 L 333.726562 38.148438 L 334.160156 40.089844 L 334.53125 42.054688 L 334.816406 44.058594 L 335.027344 46.078125 L 335.148438 48.121094 L 335.195312 50.191406 L 335.195312 145.175781 L 335.179688 145.859375 L 335.140625 146.554688 L 335.066406 147.230469 L 334.976562 147.894531 L 334.855469 148.550781 L 334.703125 149.199219 L 334.539062 149.839844 L 334.34375 150.464844 L 334.125 151.082031 L 333.875 151.683594 L 333.605469 152.285156 L 333.316406 152.867188 L 333.007812 153.4375 L 332.683594 153.988281 L 332.332031 154.53125 L 331.953125 155.050781 L 331.5625 155.570312 L 331.15625 156.066406 L 330.726562 156.542969 L 330.273438 157 L 329.816406 157.453125 L 329.332031 157.882812 L 328.835938 158.289062 L 328.324219 158.675781 L 327.789062 159.042969 L 327.253906 159.398438 L 326.695312 159.722656 L 326.117188 160.039062 L 325.535156 160.324219 L 324.941406 160.585938 L 324.332031 160.835938 L 323.714844 161.054688 L 323.082031 161.242188 L 322.433594 161.417969 L 321.785156 161.566406 L 321.128906 161.6875 L 320.460938 161.785156 L 319.78125 161.851562 L 319.097656 161.898438 L 318.402344 161.90625 L 317.703125 161.898438 L 317.023438 161.851562 L 316.347656 161.785156 L 315.667969 161.6875 L 315.011719 161.566406 L 314.367188 161.417969 L 313.71875 161.242188 L 313.085938 161.054688 L 312.46875 160.835938 L 311.855469 160.585938 L 311.261719 160.324219 L 310.683594 160.039062 L 310.101562 159.722656 L 309.550781 159.398438 L 309.007812 159.042969 L 308.472656 158.675781 L 307.960938 158.289062 L 307.464844 157.882812 L 306.992188 157.453125 L 306.523438 157 L 306.070312 156.542969 L 305.640625 156.066406 L 305.234375 155.570312 L 304.84375 155.050781 L 304.46875 154.53125 L 304.128906 153.988281 L 303.789062 153.4375 L 303.480469 152.867188 L 303.195312 152.285156 L 302.929688 151.683594 L 302.683594 151.082031 L 302.457031 150.464844 L 302.265625 149.839844 L 302.101562 149.199219 L 301.945312 148.550781 L 301.824219 147.894531 L 301.734375 147.230469 L 301.664062 146.554688 L 301.621094 145.859375 L 301.605469 145.175781 L 301.605469 50.191406 L 301.597656 49.5 L 301.550781 48.8125 L 301.484375 48.144531 L 301.386719 47.480469 L 301.265625 46.816406 L 301.121094 46.175781 L 300.949219 45.535156 L 300.753906 44.902344 L 300.535156 44.292969 L 300.292969 43.691406 L 300.023438 43.089844 L 299.730469 42.507812 L 299.421875 41.945312 L 299.089844 41.378906 L 298.742188 40.84375 L 298.371094 40.316406 L 297.980469 39.804688 L 297.558594 39.316406 L 297.136719 38.832031 L 296.691406 38.367188 L 296.21875 37.921875 L 295.738281 37.492188 L 295.246094 37.078125 L 294.734375 36.691406 L 294.207031 36.324219 L 293.65625 35.96875 L 293.101562 35.636719 L 292.535156 35.328125 L 291.941406 35.035156 L 291.351562 34.773438 L 290.742188 34.53125 L 290.117188 34.3125 L 289.492188 34.117188 L 288.851562 33.945312 L 288.195312 33.800781 L 287.53125 33.679688 L 286.871094 33.582031 L 286.183594 33.515625 L 285.507812 33.476562 L 284.8125 33.453125 L 248.777344 33.453125 L 253.738281 35.117188 L 254.765625 35.488281 L 255.765625 35.886719 L 256.761719 36.316406 L 257.71875 36.777344 L 258.675781 37.257812 L 259.601562 37.769531 L 260.511719 38.3125 L 261.394531 38.871094 L 262.265625 39.464844 L 263.109375 40.082031 L 263.933594 40.714844 L 264.746094 41.378906 L 265.523438 42.0625 L 266.28125 42.765625 L 267.019531 43.503906 L 267.730469 44.25 L 268.421875 45.015625 L 269.078125 45.808594 L 269.71875 46.613281 L 270.328125 47.441406 L 270.921875 48.285156 L 271.480469 49.152344 L 272.015625 50.027344 L 272.519531 50.914062 L 273 51.835938 L 273.453125 52.753906 L 273.875 53.695312 L 274.273438 54.644531 L 274.636719 55.617188 L 274.976562 56.585938 L 275.277344 57.582031 L 275.554688 58.578125 L 275.804688 59.59375 L 276.015625 60.609375 L 276.203125 61.648438 L 276.347656 62.683594 L 276.460938 63.738281 L 276.550781 64.785156 L 276.601562 65.851562 L 276.617188 66.921875 L 276.617188 317.867188 L 284.8125 317.867188 L 285.507812 317.84375 L 286.183594 317.800781 L 286.871094 317.734375 L 287.53125 317.640625 L 288.195312 317.515625 L 288.851562 317.371094 L 289.492188 317.199219 L 290.117188 317 L 290.742188 316.785156 L 291.351562 316.542969 L 291.941406 316.277344 L 292.535156 315.984375 L 293.101562 315.675781 L 293.65625 315.34375 L 294.207031 315 L 294.734375 314.628906 L 295.246094 314.238281 L 295.738281 313.824219 L 296.21875 313.394531 L 296.691406 312.949219 L 297.136719 312.488281 L 297.558594 312.007812 L 297.980469 311.511719 L 298.371094 311.003906 L 298.742188 310.476562 L 299.089844 309.9375 L 299.421875 309.378906 L 299.730469 308.8125 L 300.023438 308.234375 L 300.292969 307.632812 L 300.535156 307.027344 L 300.753906 306.410156 L 300.949219 305.777344 L 301.121094 305.144531 L 301.265625 304.496094 L 301.386719 303.835938 L 301.484375 303.171875 L 301.550781 302.5 L 301.597656 301.816406 L 301.605469 301.128906 L 301.605469 191.511719 L 301.621094 190.824219 L 301.664062 190.148438 L 301.734375 189.460938 L 301.824219 188.796875 L 301.945312 188.144531 L 302.101562 187.496094 L 302.265625 186.855469 L 302.457031 186.230469 L 302.683594 185.605469 L 302.929688 185 L 303.195312 184.414062 L 303.480469 183.828125 L 303.789062 183.253906 L 304.128906 182.703125 L 304.46875 182.160156 L 304.84375 181.640625 L 305.234375 181.121094 L 305.640625 180.625 L 306.070312 180.152344 L 306.523438 179.683594 L 306.992188 179.238281 L 307.464844 178.808594 L 307.960938 178.402344 L 308.472656 178.019531 L 309.007812 177.640625 L 309.550781 177.289062 L 310.101562 176.957031 L 310.683594 176.648438 L 311.261719 176.363281 L 311.855469 176.097656 L 312.46875 175.855469 L 313.085938 175.636719 L 313.71875 175.441406 L 314.367188 175.269531 L 315.011719 175.117188 L 315.667969 175 L 316.347656 174.90625 L 317.023438 174.839844 L 317.703125 174.792969 L 318.402344 174.78125 L 319.097656 174.792969 L 319.78125 174.839844 L 320.460938 174.90625 L 321.128906 175 L 321.785156 175.117188 L 322.433594 175.269531 L 323.082031 175.441406 L 323.714844 175.636719 L 324.332031 175.855469 L 324.941406 176.097656 L 325.535156 176.363281 L 326.117188 176.648438 L 326.695312 176.957031 L 327.253906 177.289062 L 327.789062 177.640625 L 328.324219 178.019531 L 328.835938 178.402344 L 329.332031 178.808594 L 329.816406 179.238281 L 330.273438 179.683594 L 330.726562 180.152344 L 331.15625 180.625 L 331.5625 181.121094 L 331.953125 181.640625 L 332.332031 182.160156 L 332.683594 182.703125 L 333.007812 183.253906 L 333.316406 183.828125 L 333.605469 184.414062 L 333.875 185 L 334.125 185.605469 L 334.34375 186.230469 L 334.539062 186.855469 L 334.703125 187.496094 L 334.855469 188.144531 L 334.976562 188.796875 L 335.066406 189.460938 L 335.140625 190.148438 L 335.179688 190.824219 L 335.195312 191.511719 L 335.195312 301.128906 L 335.148438 303.195312 L 335.027344 305.242188 L 334.816406 307.261719 L 334.53125 309.257812 L 334.160156 311.230469 L 333.726562 313.175781 L 333.210938 315.089844 L 332.625 316.980469 L 331.953125 318.832031 L 331.222656 320.648438 L 330.433594 322.425781 L 329.558594 324.179688 L 328.632812 325.875 L 327.632812 327.546875 L 326.578125 329.167969 L 325.460938 330.75 L 324.285156 332.277344 L 323.050781 333.769531 L 321.761719 335.210938 L 320.414062 336.601562 L 319.027344 337.945312 L 317.582031 339.222656 L 316.082031 340.453125 L 314.546875 341.621094 L 312.964844 342.734375 L 311.328125 343.78125 L 309.65625 344.785156 L 307.949219 345.703125 L 306.191406 346.578125 L 304.40625 347.367188 L 302.582031 348.097656 L 300.722656 348.753906 L 298.832031 349.339844 L 296.902344 349.851562 L 294.953125 350.296875 L 292.980469 350.660156 L 290.96875 350.945312 L 288.941406 351.148438 L 286.894531 351.277344 L 284.8125 351.316406 L 276.617188 351.316406 L 276.617188 368.050781 L 276.585938 369.421875 L 276.503906 370.792969 L 276.363281 372.136719 L 276.171875 373.46875 L 275.933594 374.789062 L 275.636719 376.082031 L 275.292969 377.355469 L 274.898438 378.613281 L 274.464844 379.847656 L 273.964844 381.0625 L 273.4375 382.246094 L 272.867188 383.414062 L 272.234375 384.550781 L 271.578125 385.65625 L 270.878906 386.75 L 270.125 387.796875 L 269.339844 388.820312 L 268.527344 389.808594 L 267.660156 390.773438 L 266.773438 391.699219 L 265.839844 392.585938 L 264.882812 393.445312 L 263.886719 394.265625 L 262.855469 395.042969 L 261.792969 395.78125 L 260.714844 396.488281 L 259.59375 397.152344 L 258.457031 397.761719 L 257.289062 398.34375 L 256.089844 398.878906 L 254.878906 399.359375 L 253.632812 399.796875 L 252.367188 400.1875 L 251.097656 400.527344 L 249.800781 400.820312 L 248.472656 401.070312 L 247.132812 401.257812 L 245.785156 401.394531 L 244.414062 401.476562 L 243.027344 401.507812 L 242.5 401.507812 L 242.222656 401.5 L 241.964844 401.492188 L 241.695312 401.484375 L 241.429688 401.46875 L 241.167969 401.460938 L 240.902344 401.445312 L 240.640625 401.429688 L 240.375 401.410156 L 240.113281 401.394531 L 239.855469 401.371094 L 239.585938 401.347656 L 239.328125 401.316406 L 239.066406 401.296875 L 238.808594 401.265625 L 238.546875 401.234375 L 238.289062 401.199219 L 238.027344 401.160156 L 237.777344 401.121094 L 237.507812 401.085938 L 237.25 401.046875 L 236.996094 401 L 236.738281 400.957031 L 236.480469 400.910156 L 236.226562 400.859375 L 235.960938 400.804688 L 235.699219 400.753906 L 235.441406 400.699219 L 235.1875 400.632812 L 234.929688 400.578125 L 234.675781 400.511719 L 234.417969 400.460938 L 234.160156 400.390625 L 233.90625 400.316406 L 233.65625 400.25 L 233.394531 400.179688 L 233.136719 400.105469 L 232.882812 400.023438 L 232.625 399.949219 L 231.660156 399.652344 L 230.28125 399.277344 L 228.542969 398.808594 L 226.433594 398.28125 L 223.976562 397.679688 L 221.210938 397.015625 L 218.148438 396.277344 L 214.816406 395.496094 L 211.222656 394.652344 L 207.398438 393.761719 L 203.359375 392.828125 L 199.132812 391.855469 L 194.742188 390.847656 L 190.199219 389.808594 L 185.523438 388.746094 L 180.746094 387.652344 L 175.878906 386.554688 L 170.960938 385.429688 L 165.996094 384.308594 L 156.007812 382.035156 L 151.042969 380.910156 L 146.125 379.789062 L 141.257812 378.6875 L 136.480469 377.597656 L 131.8125 376.527344 L 127.269531 375.496094 L 122.871094 374.484375 L 118.644531 373.515625 L 114.605469 372.578125 L 110.789062 371.683594 L 107.195312 370.847656 L 103.855469 370.0625 L 100.789062 369.324219 L 98.027344 368.664062 L 95.578125 368.058594 L 93.46875 367.519531 L 91.722656 367.066406 L 90.351562 366.6875 L 89.394531 366.386719 L 88.363281 366.019531 L 87.359375 365.621094 L 86.371094 365.191406 L 85.410156 364.730469 L 84.460938 364.25 L 83.527344 363.730469 L 82.621094 363.195312 L 81.726562 362.628906 L 80.867188 362.042969 L 80.023438 361.421875 L 79.195312 360.789062 L 78.386719 360.128906 L 77.605469 359.441406 L 76.84375 358.734375 L 76.113281 358.003906 L 75.398438 357.257812 L 74.710938 356.488281 L 74.050781 355.699219 L 73.410156 354.894531 L 72.796875 354.0625 L 72.210938 353.21875 L 71.652344 352.355469 L 71.109375 351.480469 L 70.605469 350.589844 L 70.132812 349.671875 L 69.679688 348.753906 L 69.257812 347.8125 L 68.859375 346.863281 L 68.488281 345.890625 L 68.15625 344.917969 L 67.855469 343.925781 L 67.570312 342.921875 L 67.335938 341.914062 L 67.117188 340.894531 L 66.9375 339.855469 L 66.789062 338.824219 L 66.667969 337.769531 L 66.582031 336.722656 L 66.53125 335.652344 L 66.515625 334.582031 L 66.515625 33.453125 L 66.546875 32.082031 L 66.628906 30.710938 L 66.765625 29.371094 L 66.953125 28.039062 L 67.195312 26.71875 L 67.496094 25.421875 L 67.84375 24.152344 L 68.234375 22.894531 L 68.671875 21.65625 L 69.152344 20.445312 L 69.695312 19.261719 L 70.265625 18.09375 L 70.886719 16.957031 L 71.554688 15.847656 L 72.257812 14.757812 L 73 13.710938 L 73.792969 12.683594 L 74.605469 11.699219 L 75.472656 10.734375 L 76.363281 9.808594 L 77.289062 8.917969 L 78.253906 8.058594 L 79.253906 7.238281 L 80.277344 6.464844 L 81.332031 5.726562 L 82.417969 5.015625 L 83.53125 4.355469 L 84.679688 3.742188 L 85.84375 3.164062 L 87.035156 2.628906 L 88.257812 2.148438 L 89.5 1.710938 L 90.757812 1.316406 L 92.039062 0.980469 L 93.347656 0.683594 L 94.660156 0.4375 L 96 0.25 L 97.355469 0.113281 L 98.71875 0.03125 L 100.105469 0 L 100.226562 0 L 100.285156 0.0078125 Z M 235.925781 186.09375 L 234.894531 186.222656 L 233.875 186.394531 L 232.875 186.621094 L 231.886719 186.894531 L 230.90625 187.210938 L 229.949219 187.578125 L 229.007812 187.984375 L 228.082031 188.4375 L 227.179688 188.925781 L 226.289062 189.46875 L 225.421875 190.042969 L 224.578125 190.652344 L 223.75 191.308594 L 222.953125 192 L 222.167969 192.722656 L 221.417969 193.484375 L 220.679688 194.28125 L 219.976562 195.109375 L 219.300781 195.96875 L 218.644531 196.867188 L 218.019531 197.785156 L 217.421875 198.742188 L 216.859375 199.722656 L 216.324219 200.722656 L 215.820312 201.761719 L 215.351562 202.816406 L 214.90625 203.902344 L 214.507812 205.007812 L 214.140625 206.140625 L 213.800781 207.285156 L 213.507812 208.453125 L 213.242188 209.640625 L 213.015625 210.847656 L 212.835938 212.074219 L 212.683594 213.3125 L 212.585938 214.570312 L 212.519531 215.84375 L 212.496094 217.121094 L 212.519531 218.402344 L 212.585938 219.675781 L 212.683594 220.925781 L 212.835938 222.167969 L 213.015625 223.390625 L 213.242188 224.59375 L 213.507812 225.785156 L 213.800781 226.960938 L 214.140625 228.105469 L 214.507812 229.234375 L 214.90625 230.34375 L 215.351562 231.421875 L 215.820312 232.480469 L 216.324219 233.515625 L 216.859375 234.523438 L 217.421875 235.503906 L 218.019531 236.453125 L 218.644531 237.378906 L 219.300781 238.265625 L 219.976562 239.132812 L 220.679688 239.960938 L 221.417969 240.753906 L 222.167969 241.515625 L 222.953125 242.246094 L 223.75 242.929688 L 224.578125 243.585938 L 225.421875 244.203125 L 226.289062 244.777344 L 227.179688 245.3125 L 228.082031 245.808594 L 229.007812 246.261719 L 229.949219 246.667969 L 230.90625 247.027344 L 231.886719 247.34375 L 232.875 247.625 L 233.875 247.847656 L 234.894531 248.023438 L 235.925781 248.152344 L 236.964844 248.226562 L 238.011719 248.257812 L 239.066406 248.226562 L 240.105469 248.152344 L 241.128906 248.023438 L 242.148438 247.847656 L 243.148438 247.625 L 244.144531 247.34375 L 245.113281 247.027344 L 246.070312 246.667969 L 247.011719 246.261719 L 247.941406 245.808594 L 248.84375 245.3125 L 249.734375 244.777344 L 250.597656 244.203125 L 251.449219 243.585938 L 252.269531 242.929688 L 253.078125 242.246094 L 253.851562 241.515625 L 254.613281 240.753906 L 255.34375 239.960938 L 256.046875 239.132812 L 256.730469 238.265625 L 257.378906 237.378906 L 258.003906 236.453125 L 258.597656 235.503906 L 259.164062 234.523438 L 259.699219 233.515625 L 260.203125 232.480469 L 260.679688 231.421875 L 261.113281 230.34375 L 261.523438 229.234375 L 261.890625 228.105469 L 262.222656 226.960938 L 262.523438 225.785156 L 262.78125 224.59375 L 263.003906 223.390625 L 263.195312 222.167969 L 263.335938 220.925781 L 263.441406 219.675781 L 263.503906 218.402344 L 263.527344 217.121094 L 263.503906 215.84375 L 263.441406 214.570312 L 263.335938 213.3125 L 263.195312 212.074219 L 263.003906 210.847656 L 262.78125 209.640625 L 262.523438 208.453125 L 262.222656 207.285156 L 261.890625 206.140625 L 261.523438 205.007812 L 261.113281 203.902344 L 260.679688 202.816406 L 260.203125 201.761719 L 259.699219 200.722656 L 259.164062 199.722656 L 258.597656 198.742188 L 258.003906 197.785156 L 257.378906 196.867188 L 256.730469 195.96875 L 256.046875 195.109375 L 255.34375 194.28125 L 254.613281 193.484375 L 253.851562 192.722656 L 253.078125 192 L 252.269531 191.308594 L 251.449219 190.652344 L 250.597656 190.042969 L 249.734375 189.46875 L 248.84375 188.925781 L 247.941406 188.4375 L 247.011719 187.984375 L 246.070312 187.578125 L 245.113281 187.210938 L 244.144531 186.894531 L 243.148438 186.621094 L 242.148438 186.394531 L 241.128906 186.222656 L 240.105469 186.09375 L 239.066406 186.011719 L 238.011719 185.988281 L 236.964844 186.011719 Z M 235.925781 186.09375 "/>
</g>
</svg>
