<svg width="64" height="64" viewBox="0 0 64 64" fill="none" xmlns="http://www.w3.org/2000/svg">
<path d="M19.7346 8H44.5873C46.561 8 48.1609 9.59999 48.1609 11.5737V19V30V41V48.4263C48.1609 50.4 46.561 52 44.5873 52H19.7346C17.7609 52 16.1609 50.4 16.1609 48.4263V11.5737C16.1609 9.59999 17.7609 8 19.7346 8Z" stroke="#FF6060" stroke-width="3.57367" stroke-linecap="round"/>
<path fill-rule="evenodd" clip-rule="evenodd" d="M27.6684 13.6385C28.184 13.9151 28.5057 14.4529 28.5057 15.038V56.345C28.5057 57.5459 27.2245 58.3124 26.1664 57.7446L17.8839 53.2999C16.7239 52.6774 16 51.4675 16 50.151V13.3503C16 10.6484 18.8828 8.92381 21.2635 10.2014L27.6684 13.6385ZM23.8255 38.3999C22.7209 38.3999 21.8255 36.9672 21.8255 35.1999C21.8255 33.4326 22.7209 31.9999 23.8255 31.9999C24.93 31.9999 25.8255 33.4326 25.8255 35.1999C25.8255 36.9672 24.93 38.3999 23.8255 38.3999Z" fill="#FF6060"/>
</svg>
