<?xml version="1.0" encoding="UTF-8"?>
<svg xmlns="http://www.w3.org/2000/svg" xmlns:xlink="http://www.w3.org/1999/xlink" width="400pt" height="400pt" viewBox="0 0 400 400" version="1.1">
<g id="surface1">
<path style=" stroke:none;fill-rule:nonzero;fill:#ffd700;fill-opacity:1;" d="M 287.878906 0.164062 L 289.898438 0.367188 L 291.902344 0.65625 L 293.867188 1.015625 L 295.8125 1.453125 L 297.734375 1.964844 L 299.617188 2.554688 L 301.46875 3.210938 L 303.285156 3.941406 L 305.070312 4.730469 L 306.808594 5.589844 L 308.519531 6.515625 L 310.183594 7.503906 L 311.8125 8.550781 L 313.394531 9.65625 L 314.921875 10.824219 L 316.414062 12.050781 L 317.851562 13.332031 L 319.238281 14.660156 L 320.578125 16.046875 L 321.859375 17.484375 L 323.089844 18.960938 L 324.261719 20.488281 L 325.371094 22.0625 L 326.425781 23.683594 L 327.421875 25.339844 L 328.347656 27.042969 L 329.210938 28.785156 L 330.011719 30.5625 L 330.734375 32.367188 L 331.398438 34.214844 L 331.984375 36.089844 L 332.496094 38.003906 L 332.933594 39.941406 L 333.304688 41.898438 L 333.589844 43.894531 L 333.792969 45.90625 L 333.914062 47.941406 L 333.957031 50.003906 L 333.957031 144.632812 L 333.945312 145.316406 L 333.90625 146.003906 L 333.839844 146.675781 L 333.738281 147.335938 L 333.621094 147.992188 L 333.476562 148.640625 L 333.304688 149.273438 L 333.105469 149.898438 L 332.890625 150.515625 L 332.648438 151.117188 L 332.382812 151.714844 L 332.089844 152.292969 L 331.78125 152.859375 L 331.457031 153.410156 L 331.105469 153.949219 L 330.734375 154.472656 L 330.34375 154.984375 L 329.9375 155.480469 L 329.507812 155.953125 L 329.0625 156.414062 L 328.601562 156.859375 L 328.121094 157.289062 L 327.625 157.695312 L 327.109375 158.078125 L 326.589844 158.449219 L 326.050781 158.800781 L 325.492188 159.125 L 324.917969 159.433594 L 324.339844 159.722656 L 323.742188 159.984375 L 323.140625 160.234375 L 322.523438 160.453125 L 321.890625 160.640625 L 321.25 160.8125 L 320.601562 160.957031 L 319.949219 161.078125 L 319.277344 161.175781 L 318.597656 161.242188 L 317.921875 161.289062 L 317.226562 161.296875 L 316.535156 161.289062 L 315.855469 161.242188 L 315.179688 161.175781 L 314.507812 161.078125 L 313.851562 160.957031 L 313.207031 160.8125 L 312.566406 160.640625 L 311.941406 160.453125 L 311.320312 160.234375 L 310.710938 159.984375 L 310.117188 159.722656 L 309.535156 159.433594 L 308.964844 159.125 L 308.414062 158.800781 L 307.871094 158.449219 L 307.34375 158.078125 L 306.832031 157.695312 L 306.335938 157.289062 L 305.859375 156.859375 L 305.394531 156.414062 L 304.949219 155.953125 L 304.519531 155.480469 L 304.113281 154.984375 L 303.722656 154.472656 L 303.351562 153.949219 L 303.003906 153.410156 L 302.675781 152.859375 L 302.367188 152.292969 L 302.078125 151.714844 L 301.816406 151.117188 L 301.574219 150.515625 L 301.355469 149.898438 L 301.160156 149.273438 L 300.988281 148.640625 L 300.84375 147.992188 L 300.722656 147.335938 L 300.625 146.675781 L 300.558594 146.003906 L 300.511719 145.316406 L 300.496094 144.632812 L 300.496094 50.003906 L 300.488281 49.316406 L 300.445312 48.632812 L 300.375 47.960938 L 300.277344 47.300781 L 300.15625 46.644531 L 300.015625 46.003906 L 299.84375 45.363281 L 299.644531 44.738281 L 299.425781 44.128906 L 299.1875 43.527344 L 298.921875 42.929688 L 298.628906 42.351562 L 298.320312 41.785156 L 297.996094 41.226562 L 297.640625 40.691406 L 297.273438 40.164062 L 296.882812 39.652344 L 296.472656 39.164062 L 296.046875 38.683594 L 295.601562 38.222656 L 295.132812 37.777344 L 294.660156 37.347656 L 294.160156 36.941406 L 293.648438 36.558594 L 293.121094 36.1875 L 292.578125 35.835938 L 292.023438 35.503906 L 291.457031 35.195312 L 290.878906 34.90625 L 290.28125 34.644531 L 289.671875 34.402344 L 289.054688 34.183594 L 288.429688 33.988281 L 287.789062 33.816406 L 287.140625 33.671875 L 286.484375 33.550781 L 285.816406 33.453125 L 285.144531 33.386719 L 284.460938 33.347656 L 283.765625 33.332031 L 140.023438 33.332031 L 144.980469 34.984375 L 145.996094 35.351562 L 147 35.75 L 147.976562 36.179688 L 148.941406 36.640625 L 149.882812 37.121094 L 150.808594 37.628906 L 151.714844 38.167969 L 152.601562 38.726562 L 153.46875 39.316406 L 154.3125 39.933594 L 155.132812 40.566406 L 155.933594 41.226562 L 156.714844 41.90625 L 157.46875 42.605469 L 158.199219 43.335938 L 158.90625 44.082031 L 159.59375 44.851562 L 160.257812 45.632812 L 160.890625 46.441406 L 161.5 47.261719 L 162.085938 48.105469 L 162.644531 48.964844 L 163.179688 49.839844 L 163.683594 50.726562 L 164.15625 51.636719 L 164.609375 52.558594 L 165.03125 53.492188 L 165.421875 54.441406 L 165.792969 55.40625 L 166.125 56.375 L 166.433594 57.363281 L 166.703125 58.359375 L 166.953125 59.367188 L 167.164062 60.382812 L 167.34375 61.417969 L 167.496094 62.449219 L 167.609375 63.496094 L 167.699219 64.542969 L 167.742188 65.605469 L 167.757812 66.667969 L 167.757812 316.671875 L 283.765625 316.671875 L 284.460938 316.65625 L 285.144531 316.609375 L 285.816406 316.542969 L 286.484375 316.453125 L 287.140625 316.324219 L 287.789062 316.179688 L 288.429688 316.007812 L 289.054688 315.8125 L 289.671875 315.59375 L 290.28125 315.351562 L 290.878906 315.089844 L 291.457031 314.800781 L 292.023438 314.492188 L 292.578125 314.160156 L 293.121094 313.816406 L 293.648438 313.445312 L 294.160156 313.054688 L 294.660156 312.648438 L 295.132812 312.21875 L 295.601562 311.773438 L 296.046875 311.316406 L 296.472656 310.839844 L 296.882812 310.34375 L 297.273438 309.839844 L 297.640625 309.3125 L 297.996094 308.769531 L 298.320312 308.21875 L 298.628906 307.652344 L 298.921875 307.074219 L 299.1875 306.476562 L 299.425781 305.875 L 299.644531 305.257812 L 299.84375 304.632812 L 300.015625 304 L 300.15625 303.351562 L 300.277344 302.695312 L 300.375 302.035156 L 300.445312 301.363281 L 300.488281 300.683594 L 300.496094 300 L 300.496094 190.792969 L 300.511719 190.109375 L 300.558594 189.429688 L 300.625 188.753906 L 300.722656 188.089844 L 300.84375 187.433594 L 300.988281 186.792969 L 301.160156 186.15625 L 301.355469 185.527344 L 301.574219 184.910156 L 301.816406 184.308594 L 302.078125 183.722656 L 302.367188 183.140625 L 302.675781 182.570312 L 303.003906 182.019531 L 303.351562 181.476562 L 303.722656 180.957031 L 304.113281 180.445312 L 304.519531 179.949219 L 304.949219 179.472656 L 305.394531 179.011719 L 305.859375 178.570312 L 306.335938 178.140625 L 306.832031 177.734375 L 307.34375 177.347656 L 307.871094 176.972656 L 308.414062 176.625 L 308.964844 176.292969 L 309.535156 175.984375 L 310.117188 175.699219 L 310.710938 175.433594 L 311.320312 175.195312 L 311.941406 174.976562 L 312.566406 174.78125 L 313.207031 174.613281 L 313.851562 174.464844 L 314.507812 174.34375 L 315.179688 174.253906 L 315.855469 174.183594 L 316.535156 174.140625 L 317.226562 174.125 L 317.921875 174.140625 L 318.597656 174.183594 L 319.277344 174.253906 L 319.949219 174.34375 L 320.601562 174.464844 L 321.25 174.613281 L 321.890625 174.78125 L 322.523438 174.976562 L 323.140625 175.195312 L 323.742188 175.433594 L 324.339844 175.699219 L 324.917969 175.984375 L 325.492188 176.292969 L 326.050781 176.625 L 326.589844 176.972656 L 327.109375 177.347656 L 327.625 177.734375 L 328.121094 178.140625 L 328.601562 178.570312 L 329.0625 179.011719 L 329.507812 179.472656 L 329.9375 179.949219 L 330.34375 180.445312 L 330.734375 180.957031 L 331.105469 181.476562 L 331.457031 182.019531 L 331.78125 182.570312 L 332.089844 183.140625 L 332.382812 183.722656 L 332.648438 184.308594 L 332.890625 184.910156 L 333.105469 185.527344 L 333.304688 186.15625 L 333.476562 186.792969 L 333.621094 187.433594 L 333.738281 188.089844 L 333.839844 188.753906 L 333.90625 189.429688 L 333.945312 190.109375 L 333.957031 190.792969 L 333.957031 300 L 333.914062 302.054688 L 333.792969 304.097656 L 333.589844 306.109375 L 333.304688 308.097656 L 332.933594 310.0625 L 332.496094 312 L 331.984375 313.90625 L 331.398438 315.789062 L 330.734375 317.632812 L 330.011719 319.441406 L 329.210938 321.21875 L 328.347656 322.960938 L 327.421875 324.65625 L 326.425781 326.320312 L 325.371094 327.933594 L 324.261719 329.507812 L 323.089844 331.035156 L 321.859375 332.519531 L 320.578125 333.949219 L 319.238281 335.335938 L 317.851562 336.671875 L 316.414062 337.949219 L 314.921875 339.171875 L 313.394531 340.339844 L 311.8125 341.445312 L 310.183594 342.492188 L 308.519531 343.488281 L 306.808594 344.40625 L 305.070312 345.273438 L 303.285156 346.0625 L 301.46875 346.789062 L 299.617188 347.441406 L 297.734375 348.03125 L 295.8125 348.542969 L 293.867188 348.980469 L 291.902344 349.339844 L 289.898438 349.628906 L 287.878906 349.832031 L 285.839844 349.957031 L 283.765625 349.996094 L 167.757812 349.996094 L 167.757812 366.667969 L 167.75 368.039062 L 167.707031 369.402344 L 167.636719 370.742188 L 167.53125 372.066406 L 167.40625 373.378906 L 167.246094 374.667969 L 167.058594 375.941406 L 166.839844 377.191406 L 166.589844 378.425781 L 166.304688 379.632812 L 165.996094 380.8125 L 165.648438 381.972656 L 165.273438 383.109375 L 164.867188 384.210938 L 164.421875 385.296875 L 163.953125 386.34375 L 163.441406 387.359375 L 162.898438 388.347656 L 162.328125 389.304688 L 161.71875 390.230469 L 161.078125 391.117188 L 160.398438 391.96875 L 159.683594 392.785156 L 158.9375 393.558594 L 158.148438 394.296875 L 157.324219 395 L 156.46875 395.660156 L 155.578125 396.269531 L 154.644531 396.851562 L 153.671875 397.378906 L 152.664062 397.859375 L 151.625 398.296875 L 150.539062 398.6875 L 149.410156 399.027344 L 148.25 399.320312 L 147.050781 399.5625 L 145.808594 399.75 L 144.527344 399.886719 L 143.203125 399.96875 L 141.839844 400 L 141.304688 400 L 141.039062 399.992188 L 140.777344 399.984375 L 140.511719 399.976562 L 140.25 399.960938 L 139.984375 399.953125 L 139.722656 399.941406 L 139.457031 399.925781 L 139.195312 399.902344 L 138.929688 399.886719 L 138.675781 399.863281 L 138.410156 399.84375 L 138.148438 399.8125 L 137.890625 399.789062 L 137.628906 399.757812 L 137.371094 399.730469 L 137.113281 399.691406 L 136.851562 399.652344 L 136.59375 399.617188 L 136.339844 399.578125 L 136.082031 399.539062 L 135.820312 399.496094 L 135.5625 399.449219 L 135.308594 399.40625 L 135.050781 399.351562 L 134.792969 399.300781 L 134.539062 399.246094 L 134.28125 399.195312 L 134.027344 399.132812 L 133.769531 399.074219 L 133.515625 399.011719 L 133.257812 398.953125 L 133 398.886719 L 132.746094 398.816406 L 132.488281 398.75 L 132.234375 398.675781 L 131.976562 398.605469 L 131.722656 398.523438 L 131.464844 398.449219 L 130.703125 398.183594 L 129.914062 397.890625 L 129.105469 397.574219 L 128.277344 397.226562 L 127.433594 396.859375 L 126.578125 396.46875 L 125.695312 396.050781 L 124.804688 395.617188 L 123.902344 395.15625 L 122.992188 394.675781 L 122.0625 394.175781 L 121.121094 393.65625 L 120.179688 393.121094 L 119.230469 392.566406 L 118.265625 391.992188 L 117.304688 391.414062 L 116.339844 390.808594 L 115.367188 390.191406 L 114.394531 389.566406 L 113.421875 388.925781 L 112.453125 388.269531 L 111.488281 387.609375 L 110.515625 386.9375 L 109.550781 386.261719 L 108.59375 385.566406 L 107.644531 384.875 L 106.703125 384.164062 L 105.769531 383.457031 L 104.84375 382.742188 L 103.933594 382.027344 L 103.027344 381.304688 L 102.148438 380.578125 L 101.273438 379.855469 L 100.414062 379.132812 L 99.570312 378.402344 L 98.75 377.679688 L 97.949219 376.957031 L 97.167969 376.242188 L 96.40625 375.519531 L 95.667969 374.808594 L 94.921875 374.078125 L 94.140625 373.324219 L 93.324219 372.542969 L 92.488281 371.730469 L 91.625 370.894531 L 90.726562 370.027344 L 89.816406 369.136719 L 88.890625 368.226562 L 87.949219 367.292969 L 86.992188 366.335938 L 86.019531 365.355469 L 85.046875 364.363281 L 84.066406 363.351562 L 83.089844 362.320312 L 82.109375 361.28125 L 81.136719 360.21875 L 80.171875 359.148438 L 79.214844 358.054688 L 78.273438 356.964844 L 77.339844 355.855469 L 76.4375 354.742188 L 75.539062 353.621094 L 74.683594 352.488281 L 73.839844 351.351562 L 73.03125 350.214844 L 72.25 349.070312 L 71.511719 347.925781 L 70.800781 346.78125 L 70.140625 345.632812 L 69.515625 344.488281 L 68.941406 343.34375 L 68.414062 342.199219 L 67.941406 341.070312 L 67.519531 339.933594 L 67.15625 338.808594 L 66.847656 337.695312 L 66.605469 336.585938 L 66.433594 335.496094 L 66.328125 334.402344 L 66.289062 333.332031 L 66.289062 33.332031 L 66.320312 31.960938 L 66.402344 30.597656 L 66.539062 29.257812 L 66.726562 27.933594 L 66.96875 26.621094 L 67.261719 25.332031 L 67.609375 24.058594 L 68 22.808594 L 68.4375 21.574219 L 68.925781 20.367188 L 69.453125 19.1875 L 70.027344 18.027344 L 70.652344 16.890625 L 71.308594 15.789062 L 72.007812 14.703125 L 72.753906 13.65625 L 73.535156 12.640625 L 74.351562 11.652344 L 75.210938 10.695312 L 76.097656 9.769531 L 77.023438 8.882812 L 77.988281 8.03125 L 78.976562 7.214844 L 80 6.441406 L 81.054688 5.703125 L 82.140625 5 L 83.246094 4.339844 L 84.382812 3.730469 L 85.550781 3.148438 L 86.734375 2.621094 L 87.949219 2.140625 L 89.183594 1.703125 L 90.441406 1.3125 L 91.722656 0.972656 L 93.015625 0.679688 L 94.328125 0.4375 L 95.660156 0.25 L 97.007812 0.113281 L 98.371094 0.03125 L 99.75 0 L 99.871094 0 L 99.933594 0.0078125 L 99.992188 0.0078125 L 100.050781 0.015625 L 100.113281 0.015625 L 100.171875 0.0234375 L 100.234375 0.03125 L 100.292969 0.0390625 L 100.355469 0.046875 L 100.414062 0.0585938 L 100.472656 0.0664062 L 100.535156 0.0742188 L 100.59375 0.0898438 L 100.65625 0.0976562 L 100.714844 0.113281 L 100.777344 0.121094 L 100.828125 0.136719 L 100.890625 0.144531 L 100.949219 0.15625 L 101.007812 0.171875 L 101.070312 0.179688 L 101.128906 0.195312 L 101.191406 0.210938 L 101.242188 0.21875 L 101.304688 0.234375 L 101.363281 0.25 L 101.421875 0.257812 L 101.484375 0.269531 L 101.542969 0.277344 L 101.605469 0.292969 L 101.664062 0.300781 L 101.726562 0.316406 L 101.84375 0.332031 L 101.90625 0.339844 L 101.957031 0.347656 L 102.019531 0.355469 L 102.078125 0.363281 L 102.148438 0.367188 L 102.191406 0.363281 L 102.238281 0.355469 L 102.28125 0.347656 L 102.328125 0.339844 L 102.371094 0.332031 L 102.417969 0.316406 L 102.464844 0.308594 L 102.5 0.292969 L 102.546875 0.285156 L 102.589844 0.277344 L 102.636719 0.261719 L 102.683594 0.25 L 102.726562 0.242188 L 102.765625 0.226562 L 102.808594 0.21875 L 102.855469 0.203125 L 102.898438 0.1875 L 102.9375 0.179688 L 102.984375 0.164062 L 103.027344 0.152344 L 103.074219 0.144531 L 103.117188 0.128906 L 103.15625 0.121094 L 103.203125 0.105469 L 103.246094 0.0976562 L 103.292969 0.0820312 L 103.335938 0.0742188 L 103.382812 0.0585938 L 103.425781 0.0507812 L 103.464844 0.046875 L 103.511719 0.0390625 L 103.554688 0.03125 L 103.601562 0.0234375 L 103.652344 0.015625 L 103.699219 0.015625 L 103.742188 0.0078125 L 103.789062 0.0078125 L 103.835938 0 L 283.765625 0 L 285.839844 0.046875 Z M 142.335938 184.347656 L 141.898438 184.503906 L 141.46875 184.722656 L 141.046875 185.007812 L 140.632812 185.347656 L 140.226562 185.746094 L 139.828125 186.199219 L 139.433594 186.710938 L 139.050781 187.269531 L 138.675781 187.878906 L 138.3125 188.542969 L 137.957031 189.257812 L 137.621094 190.011719 L 137.289062 190.816406 L 136.972656 191.660156 L 136.664062 192.558594 L 136.367188 193.484375 L 136.082031 194.457031 L 135.820312 195.464844 L 135.5625 196.511719 L 135.320312 197.597656 L 135.105469 198.710938 L 134.894531 199.863281 L 134.695312 201.046875 L 134.523438 202.253906 L 134.359375 203.496094 L 134.214844 204.761719 L 134.09375 206.050781 L 133.980469 207.367188 L 133.898438 208.699219 L 133.824219 210.0625 L 133.777344 211.433594 L 133.738281 212.835938 L 133.734375 214.246094 L 133.738281 215.660156 L 133.777344 217.054688 L 133.824219 218.433594 L 133.898438 219.789062 L 133.980469 221.128906 L 134.09375 222.449219 L 134.214844 223.738281 L 134.359375 225 L 134.523438 226.238281 L 134.695312 227.449219 L 134.894531 228.632812 L 135.105469 229.777344 L 135.320312 230.898438 L 135.5625 231.976562 L 135.820312 233.023438 L 136.082031 234.035156 L 136.367188 235.003906 L 136.664062 235.941406 L 136.972656 236.828125 L 137.289062 237.679688 L 137.621094 238.476562 L 137.957031 239.238281 L 138.3125 239.949219 L 138.675781 240.609375 L 139.050781 241.226562 L 139.433594 241.785156 L 139.828125 242.296875 L 140.226562 242.75 L 140.632812 243.148438 L 141.046875 243.488281 L 141.46875 243.765625 L 141.898438 243.992188 L 142.335938 244.152344 L 142.773438 244.25 L 143.222656 244.277344 L 143.667969 244.25 L 144.105469 244.152344 L 144.542969 243.992188 L 144.972656 243.765625 L 145.394531 243.488281 L 145.808594 243.148438 L 146.214844 242.75 L 146.613281 242.296875 L 147.003906 241.785156 L 147.390625 241.226562 L 147.765625 240.609375 L 148.128906 239.949219 L 148.480469 239.238281 L 148.820312 238.476562 L 149.152344 237.679688 L 149.46875 236.828125 L 149.777344 235.941406 L 150.070312 235.003906 L 150.359375 234.035156 L 150.621094 233.023438 L 150.878906 231.976562 L 151.117188 230.898438 L 151.335938 229.777344 L 151.546875 228.632812 L 151.742188 227.449219 L 151.917969 226.238281 L 152.082031 225 L 152.226562 223.738281 L 152.347656 222.449219 L 152.460938 221.128906 L 152.542969 219.789062 L 152.617188 218.433594 L 152.664062 217.054688 L 152.699219 215.660156 L 152.707031 214.246094 L 152.699219 212.835938 L 152.664062 211.433594 L 152.617188 210.0625 L 152.542969 208.699219 L 152.460938 207.367188 L 152.347656 206.050781 L 152.226562 204.761719 L 152.082031 203.496094 L 151.917969 202.253906 L 151.742188 201.046875 L 151.546875 199.863281 L 151.335938 198.710938 L 151.117188 197.597656 L 150.878906 196.511719 L 150.621094 195.464844 L 150.359375 194.457031 L 150.070312 193.484375 L 149.777344 192.558594 L 149.46875 191.660156 L 149.152344 190.816406 L 148.820312 190.011719 L 148.480469 189.257812 L 148.128906 188.542969 L 147.765625 187.878906 L 147.390625 187.269531 L 147.003906 186.710938 L 146.613281 186.199219 L 146.214844 185.746094 L 145.808594 185.347656 L 145.394531 185.007812 L 144.972656 184.722656 L 144.542969 184.503906 L 144.105469 184.347656 L 143.667969 184.25 L 143.222656 184.21875 L 142.773438 184.25 Z M 142.335938 184.347656 "/>
</g>
</svg>
